<?xml version="1.0" encoding="utf-8"?>
<!-- Generator: Adobe Illustrator 18.0.0, SVG Export Plug-In . SVG Version: 6.00 Build 0)  -->
<!DOCTYPE svg PUBLIC "-//W3C//DTD SVG 1.1//EN" "http://www.w3.org/Graphics/SVG/1.1/DTD/svg11.dtd">
<svg version="1.1" id="Layer_1" xmlns="http://www.w3.org/2000/svg" xmlns:xlink="http://www.w3.org/1999/xlink" x="0px" y="0px"
	 viewBox="0 0 523.1 191.6" enable-background="new 0 0 523.1 191.6" xml:space="preserve">
<g>
	<g>
		<g>
			<polyline fill="#FFFFFF" points="275.4,163.9 275.4,41.3 207.6,54.4 207.6,163.9 			"/>
			<path fill="#222D3B" d="M276.9,163.9h-3V43.1l-64.8,12.6v108.2h-3V54.4c0-0.7,0.5-1.3,1.2-1.5l67.8-13.2c0.4-0.1,0.9,0,1.2,0.3
				c0.3,0.3,0.5,0.7,0.5,1.2V163.9z"/>
		</g>
		<g>
			<polyline fill="#FFFFFF" points="353.6,163.9 353.6,95.2 421.4,108.4 421.4,163.9 			"/>
			<path fill="#222D3B" d="M422.9,163.9h-3v-54.2L355.1,97v66.9h-3V95.2c0-0.4,0.2-0.9,0.5-1.2c0.3-0.3,0.8-0.4,1.2-0.3l67.8,13.2
				c0.7,0.1,1.2,0.8,1.2,1.5V163.9z"/>
		</g>
		<g>
			<path fill="#FFB400" d="M353.6,160.9V96.6c0-43.2-35-78.2-78.2-78.2h0v142.4"/>
			<path fill="#222D3B" d="M355.1,160.9h-3V96.6c0-41.8-33.6-75.9-75.2-76.7l0,140.9h-3V18.4c0-0.8,0.7-1.5,1.5-1.5
				c43.9,0,79.7,35.7,79.7,79.7V160.9z"/>
		</g>
		<g>
			<path fill="#222D3B" d="M229.4,78h-12.2c-0.8,0-1.5-0.7-1.5-1.5v-12c0-0.8,0.7-1.5,1.5-1.5h12.2c0.8,0,1.5,0.7,1.5,1.5v12
				C230.9,77.4,230.2,78,229.4,78z M218.7,75h9.2v-9h-9.2V75z"/>
			<path fill="#222D3B" d="M247.6,78h-12.2c-0.8,0-1.5-0.7-1.5-1.5v-12c0-0.8,0.7-1.5,1.5-1.5h12.2c0.8,0,1.5,0.7,1.5,1.5v12
				C249.1,77.4,248.4,78,247.6,78z M236.9,75h9.2v-9h-9.2V75z"/>
			<path fill="#222D3B" d="M265.8,78h-12.2c-0.8,0-1.5-0.7-1.5-1.5v-12c0-0.8,0.7-1.5,1.5-1.5h12.2c0.8,0,1.5,0.7,1.5,1.5v12
				C267.3,77.4,266.7,78,265.8,78z M255.1,75h9.2v-9h-9.2V75z"/>
			<path fill="#222D3B" d="M229.4,97h-12.2c-0.8,0-1.5-0.7-1.5-1.5v-12c0-0.8,0.7-1.5,1.5-1.5h12.2c0.8,0,1.5,0.7,1.5,1.5v12
				C230.9,96.4,230.2,97,229.4,97z M218.7,94h9.2v-9h-9.2V94z"/>
			<path fill="#222D3B" d="M247.6,97h-12.2c-0.8,0-1.5-0.7-1.5-1.5v-12c0-0.8,0.7-1.5,1.5-1.5h12.2c0.8,0,1.5,0.7,1.5,1.5v12
				C249.1,96.4,248.4,97,247.6,97z M236.9,94h9.2v-9h-9.2V94z"/>
			<path fill="#222D3B" d="M265.8,97h-12.2c-0.8,0-1.5-0.7-1.5-1.5v-12c0-0.8,0.7-1.5,1.5-1.5h12.2c0.8,0,1.5,0.7,1.5,1.5v12
				C267.3,96.4,266.7,97,265.8,97z M255.1,94h9.2v-9h-9.2V94z"/>
			<path fill="#222D3B" d="M229.4,116h-12.2c-0.8,0-1.5-0.7-1.5-1.5v-12c0-0.8,0.7-1.5,1.5-1.5h12.2c0.8,0,1.5,0.7,1.5,1.5v12
				C230.9,115.4,230.2,116,229.4,116z M218.7,113h9.2v-9h-9.2V113z"/>
			<path fill="#222D3B" d="M247.6,116h-12.2c-0.8,0-1.5-0.7-1.5-1.5v-12c0-0.8,0.7-1.5,1.5-1.5h12.2c0.8,0,1.5,0.7,1.5,1.5v12
				C249.1,115.4,248.4,116,247.6,116z M236.9,113h9.2v-9h-9.2V113z"/>
			<path fill="#222D3B" d="M265.8,116h-12.2c-0.8,0-1.5-0.7-1.5-1.5v-12c0-0.8,0.7-1.5,1.5-1.5h12.2c0.8,0,1.5,0.7,1.5,1.5v12
				C267.3,115.4,266.7,116,265.8,116z M255.1,113h9.2v-9h-9.2V113z"/>
			<path fill="#222D3B" d="M229.4,135h-12.2c-0.8,0-1.5-0.7-1.5-1.5v-12c0-0.8,0.7-1.5,1.5-1.5h12.2c0.8,0,1.5,0.7,1.5,1.5v12
				C230.9,134.4,230.2,135,229.4,135z M218.7,132h9.2v-9h-9.2V132z"/>
			<path fill="#222D3B" d="M247.6,135h-12.2c-0.8,0-1.5-0.7-1.5-1.5v-12c0-0.8,0.7-1.5,1.5-1.5h12.2c0.8,0,1.5,0.7,1.5,1.5v12
				C249.1,134.4,248.4,135,247.6,135z M236.9,132h9.2v-9h-9.2V132z"/>
			<path fill="#222D3B" d="M265.8,135h-12.2c-0.8,0-1.5-0.7-1.5-1.5v-12c0-0.8,0.7-1.5,1.5-1.5h12.2c0.8,0,1.5,0.7,1.5,1.5v12
				C267.3,134.4,266.7,135,265.8,135z M255.1,132h9.2v-9h-9.2V132z"/>
			<path fill="#222D3B" d="M229.4,154h-12.2c-0.8,0-1.5-0.7-1.5-1.5v-12c0-0.8,0.7-1.5,1.5-1.5h12.2c0.8,0,1.5,0.7,1.5,1.5v12
				C230.9,153.4,230.2,154,229.4,154z M218.7,151h9.2v-9h-9.2V151z"/>
			<path fill="#222D3B" d="M247.6,154h-12.2c-0.8,0-1.5-0.7-1.5-1.5v-12c0-0.8,0.7-1.5,1.5-1.5h12.2c0.8,0,1.5,0.7,1.5,1.5v12
				C249.1,153.4,248.4,154,247.6,154z M236.9,151h9.2v-9h-9.2V151z"/>
			<path fill="#222D3B" d="M265.8,154h-12.2c-0.8,0-1.5-0.7-1.5-1.5v-12c0-0.8,0.7-1.5,1.5-1.5h12.2c0.8,0,1.5,0.7,1.5,1.5v12
				C267.3,153.4,266.7,154,265.8,154z M255.1,151h9.2v-9h-9.2V151z"/>
		</g>
		<g>
			<path fill="#222D3B" d="M316.5,78h-12.2c-0.8,0-1.5-0.7-1.5-1.5v-12c0-0.8,0.7-1.5,1.5-1.5h12.2c0.8,0,1.5,0.7,1.5,1.5v12
				C318,77.4,317.3,78,316.5,78z M305.8,75h9.2v-9h-9.2V75z"/>
			<path fill="#222D3B" d="M334.7,78h-12.2c-0.8,0-1.5-0.7-1.5-1.5v-12c0-0.8,0.7-1.5,1.5-1.5h12.2c0.8,0,1.5,0.7,1.5,1.5v12
				C336.2,77.4,335.5,78,334.7,78z M324,75h9.2v-9H324V75z"/>
			<path fill="#222D3B" d="M316.5,97h-12.2c-0.8,0-1.5-0.7-1.5-1.5v-12c0-0.8,0.7-1.5,1.5-1.5h12.2c0.8,0,1.5,0.7,1.5,1.5v12
				C318,96.4,317.3,97,316.5,97z M305.8,94h9.2v-9h-9.2V94z"/>
			<path fill="#222D3B" d="M334.7,97h-12.2c-0.8,0-1.5-0.7-1.5-1.5v-12c0-0.8,0.7-1.5,1.5-1.5h12.2c0.8,0,1.5,0.7,1.5,1.5v12
				C336.2,96.4,335.5,97,334.7,97z M324,94h9.2v-9H324V94z"/>
			<path fill="#222D3B" d="M316.5,116h-12.2c-0.8,0-1.5-0.7-1.5-1.5v-12c0-0.8,0.7-1.5,1.5-1.5h12.2c0.8,0,1.5,0.7,1.5,1.5v12
				C318,115.4,317.3,116,316.5,116z M305.8,113h9.2v-9h-9.2V113z"/>
			<path fill="#222D3B" d="M334.7,116h-12.2c-0.8,0-1.5-0.7-1.5-1.5v-12c0-0.8,0.7-1.5,1.5-1.5h12.2c0.8,0,1.5,0.7,1.5,1.5v12
				C336.2,115.4,335.5,116,334.7,116z M324,113h9.2v-9H324V113z"/>
			<path fill="#222D3B" d="M316.5,135h-12.2c-0.8,0-1.5-0.7-1.5-1.5v-12c0-0.8,0.7-1.5,1.5-1.5h12.2c0.8,0,1.5,0.7,1.5,1.5v12
				C318,134.4,317.3,135,316.5,135z M305.8,132h9.2v-9h-9.2V132z"/>
			<path fill="#222D3B" d="M334.7,135h-12.2c-0.8,0-1.5-0.7-1.5-1.5v-12c0-0.8,0.7-1.5,1.5-1.5h12.2c0.8,0,1.5,0.7,1.5,1.5v12
				C336.2,134.4,335.5,135,334.7,135z M324,132h9.2v-9H324V132z"/>
			<path fill="#222D3B" d="M298.3,154H286c-0.8,0-1.5-0.7-1.5-1.5V44.1c0-0.8,0.7-1.5,1.5-1.5h12.2c0.8,0,1.5,0.7,1.5,1.5v108.4
				C299.8,153.4,299.1,154,298.3,154z M287.5,151h9.2V45.6h-9.2V151z"/>
			<path fill="#222D3B" d="M316.5,154h-12.2c-0.8,0-1.5-0.7-1.5-1.5v-12c0-0.8,0.7-1.5,1.5-1.5h12.2c0.8,0,1.5,0.7,1.5,1.5v12
				C318,153.4,317.3,154,316.5,154z M305.8,151h9.2v-9h-9.2V151z"/>
			<path fill="#222D3B" d="M334.7,154h-12.2c-0.8,0-1.5-0.7-1.5-1.5v-12c0-0.8,0.7-1.5,1.5-1.5h12.2c0.8,0,1.5,0.7,1.5,1.5v12
				C336.2,153.4,335.5,154,334.7,154z M324,151h9.2v-9H324V151z"/>
		</g>
		<path fill="#222D3B" d="M218.7,53h-3v-8.8c0-0.8,0.7-1.5,1.5-1.5h43.5v3h-42V53z"/>
		<rect x="304.3" y="57" fill="#222D3B" width="12.2" height="3"/>
		<rect x="304.3" y="42.6" fill="#222D3B" width="12.2" height="3"/>
		<rect x="304.3" y="50.2" fill="#222D3B" width="12.2" height="3"/>
		<g>
			<polyline fill="#0080FF" points="207.6,160.9 207.6,83.5 157.9,83.5 157.9,160.9 			"/>
			<path fill="#222D3B" d="M209.1,160.9h-3V85h-46.7v75.8h-3V83.5c0-0.8,0.7-1.5,1.5-1.5h49.7c0.8,0,1.5,0.7,1.5,1.5V160.9z"/>
		</g>
		<path fill="#222D3B" d="M199,116h-32.2c-0.8,0-1.5-0.7-1.5-1.5v-12c0-0.8,0.7-1.5,1.5-1.5H199c0.8,0,1.5,0.7,1.5,1.5v12
			C200.5,115.4,199.8,116,199,116z M168.2,113h29.2v-9h-29.2V113z"/>
		<path fill="#222D3B" d="M199,76.1h-32.2c-0.8,0-1.5-0.7-1.5-1.5v-12c0-0.8,0.7-1.5,1.5-1.5H199c0.8,0,1.5,0.7,1.5,1.5v12
			C200.5,75.4,199.8,76.1,199,76.1z M168.2,73.1h29.2v-9h-29.2V73.1z"/>
		<path fill="#222D3B" d="M199,135h-32.2c-0.8,0-1.5-0.7-1.5-1.5v-12c0-0.8,0.7-1.5,1.5-1.5H199c0.8,0,1.5,0.7,1.5,1.5v12
			C200.5,134.4,199.8,135,199,135z M168.2,132h29.2v-9h-29.2V132z"/>
		<path fill="#222D3B" d="M199,154h-32.2c-0.8,0-1.5-0.7-1.5-1.5v-12c0-0.8,0.7-1.5,1.5-1.5H199c0.8,0,1.5,0.7,1.5,1.5v12
			C200.5,153.4,199.8,154,199,154z M168.2,151h29.2v-9h-29.2V151z"/>
		<g>
			<rect x="172" y="74.8" fill="#222D3B" width="3" height="8.8"/>
			<rect x="190.5" y="74.8" fill="#222D3B" width="3" height="8.8"/>
		</g>
		<g>
			<polyline fill="#FFB400" points="157.9,157.1 157.9,110.3 130,90.3 102.2,110.3 102.2,157.1 			"/>
			<path fill="#222D3B" d="M159.4,157.1h-3v-46.1L130,92.1l-26.4,18.9v46.1h-3v-46.8c0-0.5,0.2-0.9,0.6-1.2l27.9-20
				c0.5-0.4,1.2-0.4,1.7,0l27.9,20c0.4,0.3,0.6,0.7,0.6,1.2V157.1z"/>
		</g>
		<path fill="#222D3B" d="M376.1,135h-12.2c-0.8,0-1.5-0.7-1.5-1.5v-12c0-0.8,0.7-1.5,1.5-1.5h12.2c0.8,0,1.5,0.7,1.5,1.5v12
			C377.6,134.4,376.9,135,376.1,135z M365.4,132h9.2v-9h-9.2V132z"/>
		<path fill="#222D3B" d="M124.8,135h-12.2c-0.8,0-1.5-0.7-1.5-1.5v-12c0-0.8,0.7-1.5,1.5-1.5h12.2c0.8,0,1.5,0.7,1.5,1.5v12
			C126.3,134.4,125.7,135,124.8,135z M114.1,132h9.2v-9h-9.2V132z"/>
		<path fill="#222D3B" d="M147,135h-12.2c-0.8,0-1.5-0.7-1.5-1.5v-12c0-0.8,0.7-1.5,1.5-1.5H147c0.8,0,1.5,0.7,1.5,1.5v12
			C148.5,134.4,147.8,135,147,135z M136.3,132h9.2v-9h-9.2V132z"/>
		<path fill="#222D3B" d="M393.7,135h-12.2c-0.8,0-1.5-0.7-1.5-1.5v-12c0-0.8,0.7-1.5,1.5-1.5h12.2c0.8,0,1.5,0.7,1.5,1.5v12
			C395.2,134.4,394.6,135,393.7,135z M383,132h9.2v-9H383V132z"/>
		<path fill="#222D3B" d="M411.4,135h-12.2c-0.8,0-1.5-0.7-1.5-1.5v-12c0-0.8,0.7-1.5,1.5-1.5h12.2c0.8,0,1.5,0.7,1.5,1.5v12
			C412.9,134.4,412.2,135,411.4,135z M400.6,132h9.2v-9h-9.2V132z"/>
		<path fill="#222D3B" d="M411.4,154h-47.5c-0.8,0-1.5-0.7-1.5-1.5v-12c0-0.8,0.7-1.5,1.5-1.5h47.5c0.8,0,1.5,0.7,1.5,1.5v12
			C412.9,153.4,412.2,154,411.4,154z M365.4,151h44.5v-9h-44.5V151z"/>
		<rect x="53.4" y="171.7" fill="#E4E6E7" width="388.4" height="3"/>
	</g>
	<g>
		<path fill="#FFFFFF" d="M48.6,112.5c-7.8,0-14.1-6.3-14.1-14.1s6.3-14.1,14.1-14.1s14.1,6.3,14.1,14.1S56.4,112.5,48.6,112.5z
			 M48.6,85.2c-7.2,0-13.1,5.9-13.1,13.1s5.9,13.1,13.1,13.1s13.1-5.9,13.1-13.1S55.8,85.2,48.6,85.2z"/>
		<path fill="#FFFFFF" d="M48.6,98.8H35v-1h13.1V84.7h1v13.6C49.1,98.6,48.9,98.8,48.6,98.8z"/>
	</g>
	<path fill="#FFFFFF" d="M102.2,98.8H70.9c-0.3,0-0.5-0.2-0.5-0.5s0.2-0.5,0.5-0.5h31.3c0.3,0,0.5,0.2,0.5,0.5
		S102.4,98.8,102.2,98.8z"/>
	<path fill="#FFFFFF" d="M112.6,59h-5.1c-0.3,0-0.5-0.2-0.5-0.5v-6.8c0-0.3,0.2-0.5,0.5-0.5h5.1c0.3,0,0.5,0.2,0.5,0.5v6.8
		C113.1,58.8,112.9,59,112.6,59z M108,58h4.1v-5.8H108V58z"/>
	<path fill="#FFFFFF" d="M121.3,59h-5.1c-0.3,0-0.5-0.2-0.5-0.5V35.1c0-0.3,0.2-0.5,0.5-0.5h5.1c0.3,0,0.5,0.2,0.5,0.5v23.4
		C121.8,58.8,121.6,59,121.3,59z M116.7,58h4.1V35.6h-4.1V58z"/>
	<path fill="#FFFFFF" d="M129.9,59h-5.1c-0.3,0-0.5-0.2-0.5-0.5V24.5c0-0.3,0.2-0.5,0.5-0.5h5.1c0.3,0,0.5,0.2,0.5,0.5v33.9
		C130.4,58.8,130.2,59,129.9,59z M125.3,58h4.1V25h-4.1V58z"/>
	<path fill="#FFFFFF" d="M138.6,59h-5.1c-0.3,0-0.5-0.2-0.5-0.5V30.6c0-0.3,0.2-0.5,0.5-0.5h5.1c0.3,0,0.5,0.2,0.5,0.5v27.9
		C139.1,58.8,138.9,59,138.6,59z M134,58h4.1V31.1H134V58z"/>
	<path fill="#FFFFFF" d="M159.5,63.1h-52c-0.3,0-0.5-0.2-0.5-0.5s0.2-0.5,0.5-0.5h52c0.3,0,0.5,0.2,0.5,0.5S159.8,63.1,159.5,63.1z"
		/>
	<path fill="#FFFFFF" d="M150,75.1H15.5c-0.3,0-0.5-0.2-0.5-0.5s0.2-0.5,0.5-0.5H150c0.3,0,0.5,0.2,0.5,0.5S150.3,75.1,150,75.1z"/>
	<path fill="#FFFFFF" d="M19.8,79.4c-0.1,0-0.3,0-0.4-0.1L15.2,75c-0.2-0.2-0.2-0.5,0-0.7l4.3-4.3c0.2-0.2,0.5-0.2,0.7,0
		s0.2,0.5,0,0.7l-3.9,3.9l3.9,3.9c0.2,0.2,0.2,0.5,0,0.7C20.1,79.3,19.9,79.4,19.8,79.4z"/>
	<path fill="#FFFFFF" d="M507.5,128h-70.7c-0.3,0-0.5-0.2-0.5-0.5s0.2-0.5,0.5-0.5h70.7c0.3,0,0.5,0.2,0.5,0.5S507.8,128,507.5,128z
		"/>
	<path fill="#FFFFFF" d="M503.3,132.3c-0.1,0-0.3,0-0.4-0.1c-0.2-0.2-0.2-0.5,0-0.7l3.9-3.9l-3.9-3.9c-0.2-0.2-0.2-0.5,0-0.7
		s0.5-0.2,0.7,0l4.3,4.3c0.2,0.2,0.2,0.5,0,0.7l-4.3,4.3C503.5,132.3,503.4,132.3,503.3,132.3z"/>
	<path fill="#FFFFFF" d="M411.4,79.4h-47.5c-0.3,0-0.5-0.2-0.5-0.5s0.2-0.5,0.5-0.5h47.5c0.3,0,0.5,0.2,0.5,0.5
		S411.6,79.4,411.4,79.4z"/>
	<path fill="#FFFFFF" d="M376.1,70.8C376.1,70.8,376.1,70.8,376.1,70.8c-0.2,0-0.3-0.1-0.4-0.2l-5.8-7.3l-5.7,5.6
		c-0.2,0.2-0.5,0.2-0.7,0c-0.2-0.2-0.2-0.5,0-0.7l6.1-6c0.1-0.1,0.2-0.1,0.4-0.1c0.1,0,0.3,0.1,0.4,0.2l5.8,7.3l17.2-18.2
		c0.1-0.1,0.3-0.2,0.5-0.1c0.2,0,0.3,0.1,0.4,0.3l5.2,12.3l11.7-5.8c0.2-0.1,0.5,0,0.7,0.2c0.1,0.2,0,0.5-0.2,0.7L399.4,65
		c-0.1,0.1-0.3,0.1-0.4,0c-0.1,0-0.2-0.1-0.3-0.3l-5.1-12.1l-17.1,18.1C376.4,70.8,376.2,70.8,376.1,70.8z"/>
	<g>
		<path fill="#FFFFFF" d="M451.7,103h-24.2c-0.3,0-0.5-0.2-0.5-0.5v-32c0-0.3,0.2-0.5,0.5-0.5h18.2c0.3,0,0.5,0.2,0.5,0.5V76h5.5
			c0.3,0,0.5,0.2,0.5,0.5v26C452.2,102.8,452,103,451.7,103z M428,102h23.2V77h-5.5c-0.3,0-0.5-0.2-0.5-0.5V71H428V102z"/>
		<path fill="#FFFFFF" d="M451.7,77h-6c-0.3,0-0.5-0.2-0.5-0.5v-6c0-0.2,0.1-0.4,0.3-0.5c0.2-0.1,0.4,0,0.5,0.1l6,6
			c0.1,0.1,0.2,0.4,0.1,0.5C452.1,76.9,451.9,77,451.7,77z M446.2,76h4.3l-4.3-4.3V76z"/>
	</g>
	<path fill="#FFFFFF" d="M439.6,92.5c-2.9,0-5.2-2.3-5.2-5.2s2.3-5.2,5.2-5.2s5.2,2.3,5.2,5.2S442.5,92.5,439.6,92.5z M439.6,83
		c-2.3,0-4.2,1.9-4.2,4.2s1.9,4.2,4.2,4.2c2.3,0,4.2-1.9,4.2-4.2S442,83,439.6,83z"/>
	<g>
		<path fill="#FFFFFF" d="M182.8,36.4c-2.8,0-5-2.2-5-5s2.2-5,5-5s5,2.2,5,5S185.5,36.4,182.8,36.4z M182.8,27.4c-2.2,0-4,1.8-4,4
			c0,2.2,1.8,4,4,4c2.2,0,4-1.8,4-4C186.8,29.2,185,27.4,182.8,27.4z"/>
		<path fill="#FFFFFF" d="M192.9,45.9h-1c0-3.4-2.8-6.2-6.2-6.2h-6.1c-3.4,0-6.2,2.8-6.2,6.2h-1c0-3.9,3.2-7.2,7.2-7.2h6.1
			C189.7,38.7,192.9,41.9,192.9,45.9z"/>
	</g>
	<g>
		<path fill="#FFFFFF" d="M478.3,114.5c-2.8,0-5-2.2-5-5s2.2-5,5-5s5,2.2,5,5S481,114.5,478.3,114.5z M478.3,105.5c-2.2,0-4,1.8-4,4
			c0,2.2,1.8,4,4,4c2.2,0,4-1.8,4-4C482.3,107.3,480.5,105.5,478.3,105.5z"/>
		<path fill="#FFFFFF" d="M488.4,124h-1c0-3.4-2.8-6.2-6.2-6.2h-6.1c-3.4,0-6.2,2.8-6.2,6.2h-1c0-3.9,3.2-7.2,7.2-7.2h6.1
			C485.2,116.9,488.4,120.1,488.4,124z"/>
	</g>
	<path fill="#FFFFFF" d="M199,49h-32.2c-0.3,0-0.5-0.2-0.5-0.5s0.2-0.5,0.5-0.5H199c0.3,0,0.5,0.2,0.5,0.5S199.2,49,199,49z"/>
	<path fill="#FFFFFF" d="M199,52.2h-32.2c-0.3,0-0.5-0.2-0.5-0.5s0.2-0.5,0.5-0.5H199c0.3,0,0.5,0.2,0.5,0.5S199.2,52.2,199,52.2z"
		/>
	<g>
		<path fill="#FFFFFF" d="M357.5,21h-15.8c-0.3,0-0.5-0.2-0.5-0.5s0.2-0.5,0.5-0.5h15.8c0.3,0,0.5,0.2,0.5,0.5S357.8,21,357.5,21z"
			/>
		<path fill="#FFFFFF" d="M357.5,25h-15.8c-0.3,0-0.5-0.2-0.5-0.5s0.2-0.5,0.5-0.5h15.8c0.3,0,0.5,0.2,0.5,0.5S357.8,25,357.5,25z"
			/>
		<path fill="#FFFFFF" d="M357.5,29.1h-15.8c-0.3,0-0.5-0.2-0.5-0.5s0.2-0.5,0.5-0.5h15.8c0.3,0,0.5,0.2,0.5,0.5
			S357.8,29.1,357.5,29.1z"/>
		<path fill="#FFFFFF" d="M339.4,22h-2c-0.3,0-0.5-0.2-0.5-0.5v-2c0-0.3,0.2-0.5,0.5-0.5h2c0.3,0,0.5,0.2,0.5,0.5v2
			C339.9,21.8,339.7,22,339.4,22z M337.9,21h1v-1h-1V21z"/>
		<path fill="#FFFFFF" d="M339.4,26.1h-2c-0.3,0-0.5-0.2-0.5-0.5v-2c0-0.3,0.2-0.5,0.5-0.5h2c0.3,0,0.5,0.2,0.5,0.5v2
			C339.9,25.8,339.7,26.1,339.4,26.1z M337.9,25.1h1v-1h-1V25.1z"/>
		<path fill="#FFFFFF" d="M339.4,30.1h-2c-0.3,0-0.5-0.2-0.5-0.5v-2c0-0.3,0.2-0.5,0.5-0.5h2c0.3,0,0.5,0.2,0.5,0.5v2
			C339.9,29.9,339.7,30.1,339.4,30.1z M337.9,29.1h1v-1h-1V29.1z"/>
	</g>
</g>
</svg>
