<?xml version="1.0" encoding="utf-8"?>
<!-- Generator: Adobe Illustrator 18.0.0, SVG Export Plug-In . SVG Version: 6.00 Build 0)  -->
<!DOCTYPE svg PUBLIC "-//W3C//DTD SVG 1.1//EN" "http://www.w3.org/Graphics/SVG/1.1/DTD/svg11.dtd">
<svg version="1.1" id="Layer_1" xmlns="http://www.w3.org/2000/svg" xmlns:xlink="http://www.w3.org/1999/xlink" x="0px" y="0px"
	 viewBox="0 0 159.7 156.7" enable-background="new 0 0 159.7 156.7" xml:space="preserve">
<g>
	<circle fill="#FFFFFF" cx="79.8" cy="78.4" r="70"/>
	<g>
		<path fill="#428DCB" d="M124.6,42.9l-12.1-4.4c-2,2.5-5.5,3.5-8.6,2.3c-3.2-1.2-5.1-4.2-5.1-7.3c0,0-6.3-2.3-7.3-2.7
			c-0.9-0.4-1.7-0.5-1.2,1c0.4,1.2,18.4,50.6,18.4,50.6c1.4,3.9,2.4,3.6,3.6,0.3l13.5-37.2C126.2,44.5,125.7,43.3,124.6,42.9z
			 M107.9,58.2c-0.4,1.1-1.6,1.6-2.6,1.2c-1.1-0.4-1.6-1.6-1.2-2.6c0.4-1.1,1.6-1.6,2.6-1.2C107.8,56,108.3,57.1,107.9,58.2z
			 M115.2,60.9c-0.4,1.1-1.6,1.6-2.6,1.2c-1.1-0.4-1.6-1.6-1.2-2.6c0.4-1.1,1.6-1.6,2.6-1.2C115,58.6,115.6,59.8,115.2,60.9z"/>
		<path fill="#E2332A" d="M81.3,29.2l-15.1,5.5c0,4-2.4,7.7-6.4,9.2c-4,1.4-8.2,0.1-10.8-2.9l-15.1,5.5c-1.3,0.5-2,2-1.5,3.3
			l23.1,63.4c0.5,1.3,2,2,3.3,1.5l15.1-5.5c0-4,2.4-7.7,6.4-9.2c4-1.4,8.2-0.1,10.8,2.9l15.1-5.5c1.3-0.5,2-2,1.5-3.3L84.6,30.7
			C84.1,29.4,82.6,28.7,81.3,29.2z M49.5,70.1c-1.6,1.1-3.8,0.1-4-1.9c-0.1-0.9,0.3-1.9,1.1-2.4c1.6-1.1,3.8-0.1,4,1.9
			C50.7,68.6,50.3,69.6,49.5,70.1z M58.6,66.8c-1.6,1.1-3.8,0.1-4-1.9c-0.1-0.9,0.3-1.9,1.1-2.4c1.6-1.1,3.8-0.1,4,1.9
			C59.8,65.3,59.3,66.3,58.6,66.8z M67.6,63.5c-1.6,1.1-3.8,0.1-4-1.9c-0.1-0.9,0.3-1.9,1.1-2.4c1.6-1.1,3.8-0.1,4,1.9
			C68.8,62,68.4,63,67.6,63.5z M76.7,60.2c-1.6,1.1-3.8,0.1-4-1.9c-0.1-0.9,0.3-1.9,1.1-2.4c1.6-1.1,3.8-0.1,4,1.9
			C77.9,58.7,77.4,59.7,76.7,60.2z M85.7,56.9c-1.6,1.1-3.8,0.1-4-1.9c-0.1-0.9,0.3-1.9,1.1-2.4c1.6-1.1,3.8-0.1,4,1.9
			C86.9,55.4,86.5,56.4,85.7,56.9z"/>
	</g>
</g>
</svg>
