<?xml version="1.0" encoding="utf-8"?>
<!-- Generator: Adobe Illustrator 18.0.0, SVG Export Plug-In . SVG Version: 6.00 Build 0)  -->
<!DOCTYPE svg PUBLIC "-//W3C//DTD SVG 1.1//EN" "http://www.w3.org/Graphics/SVG/1.1/DTD/svg11.dtd">
<svg version="1.1" id="Layer_1" xmlns="http://www.w3.org/2000/svg" xmlns:xlink="http://www.w3.org/1999/xlink" x="0px" y="0px"
	 viewBox="0 0 317.9 139.3" enable-background="new 0 0 317.9 139.3" xml:space="preserve">
<g>
	<g>
		<path fill="#E4E6E7" d="M99.4,123.2H51.3V85.8h1.5c5.4,0,9.9-4.4,9.9-9.9S58.2,66,52.8,66h-1.5V28.6H112v3H54.3v31.5
			c6.4,0.7,11.4,6.2,11.4,12.8s-5,12-11.4,12.8v31.5h45.1V123.2z"/>
		<path fill="#E4E6E7" d="M266.6,123.2h-46.2v-3h43.2V88.7c-6.4-0.7-11.4-6.2-11.4-12.8s5-12,11.4-12.8V31.6h-57.7v-3h60.7V66h-1.5
			c-5.4,0-9.9,4.4-9.9,9.9s4.4,9.9,9.9,9.9h1.5V123.2z"/>
		<path fill="#0091C9" d="M200.8,133h-83.7c-3.8,0-6.8-3.1-6.8-6.8V63.8c0-3.8,3.1-6.8,6.8-6.8h83.7c3.8,0,6.8,3.1,6.8,6.8v62.4
			C207.6,129.9,204.6,133,200.8,133z M117.1,60.4c-1.9,0-3.4,1.5-3.4,3.4v62.4c0,1.9,1.5,3.4,3.4,3.4h83.7c1.9,0,3.4-1.5,3.4-3.4
			V63.8c0-1.9-1.5-3.4-3.4-3.4H117.1z"/>
		<path fill="#73BB27" d="M119.8,120.5V69.4c0-1.6,1.3-2.9,2.9-2.9h72.4c1.6,0,2.9,1.3,2.9,2.9v51.1c0,1.6-1.3,2.9-2.9,2.9h-72.4
			C121.1,123.5,119.8,122.2,119.8,120.5z"/>
		<g>
			<path fill="#F1B201" d="M158.1,103.9l-7.6,4c-0.6,0.3-1.4-0.2-1.2-0.9l1.5-8.5c0-0.3,0-0.6-0.2-0.8l-6.2-6
				c-0.5-0.5-0.2-1.4,0.5-1.5l8.5-1.2c0.3,0,0.5-0.2,0.6-0.5l3.8-7.7c0.3-0.6,1.2-0.6,1.5,0l3.8,7.7c0.1,0.3,0.4,0.4,0.6,0.5
				l8.5,1.2c0.7,0.1,1,1,0.5,1.5l-6.2,6c-0.2,0.2-0.3,0.5-0.2,0.8l1.5,8.5c0.1,0.7-0.6,1.2-1.2,0.9l-7.6-4
				C158.6,103.8,158.3,103.8,158.1,103.9z"/>
			<path fill="#FFFFFF" d="M158.5,80.4c0.3,0,0.6,0.2,0.8,0.5l3.8,7.7c0.1,0.3,0.4,0.4,0.6,0.5l8.5,1.2c0.7,0.1,1,1,0.5,1.5l-6.2,6
				c-0.2,0.2-0.3,0.5-0.2,0.8l1.5,8.5c0.1,0.6-0.3,1-0.8,1c-0.1,0-0.3,0-0.4-0.1l-7.6-4c-0.1-0.1-0.3-0.1-0.4-0.1s-0.3,0-0.4,0.1
				l-7.6,4c-0.1,0.1-0.3,0.1-0.4,0.1c-0.5,0-0.9-0.4-0.8-1l1.5-8.5c0-0.3,0-0.6-0.2-0.8l-6.2-6c-0.5-0.5-0.2-1.4,0.5-1.5l8.5-1.2
				c0.3,0,0.5-0.2,0.6-0.5l3.8-7.7C157.8,80.6,158.2,80.4,158.5,80.4 M158.5,78.4c-1.1,0-2.1,0.6-2.6,1.6l-3.5,7.2l-7.9,1.2
				c-1.1,0.2-2,0.9-2.3,1.9c-0.3,1-0.1,2.2,0.7,2.9l5.7,5.6l-1.4,7.9c-0.1,0.8,0.1,1.7,0.6,2.3c0.5,0.6,1.3,1,2.2,1
				c0.5,0,0.9-0.1,1.3-0.3l7.1-3.7l7.1,3.7c0.4,0.2,0.9,0.3,1.3,0.3c0.8,0,1.6-0.4,2.2-1c0.5-0.6,0.8-1.5,0.6-2.3l-1.4-7.9l5.7-5.6
				c0.8-0.8,1.1-1.9,0.7-2.9c-0.3-1-1.2-1.8-2.3-1.9l-7.9-1.2L161,80C160.5,79,159.5,78.4,158.5,78.4L158.5,78.4z"/>
		</g>
		<path fill="#0091C9" d="M195.7,49.8h-3.5V43c0-18.4-14.9-33.3-33.3-33.3c-18.4,0-33.3,14.9-33.3,33.3v6.8h-3.5V43
			c0-20.3,16.5-36.8,36.8-36.8c20.3,0,36.8,16.5,36.8,36.8V49.8z"/>
	</g>
	<g>
		<line fill="#FFFFFF" x1="84.2" y1="42.5" x2="84.2" y2="108"/>
		<rect x="82.7" y="42.5" fill="#E4E6E7" width="3" height="65.5"/>
	</g>
	<g>
		<line fill="#FFFFFF" x1="233.8" y1="42.5" x2="233.8" y2="108"/>
		<rect x="232.3" y="42.5" fill="#E4E6E7" width="3" height="65.5"/>
	</g>
	<path fill="#E4E6E7" d="M297.6,123.2h-28V85.8h1.5c5.4,0,9.9-4.4,9.9-9.9s-4.4-9.9-9.9-9.9h-1.5V28.6h45.9v3h-42.9v31.5
		c6.4,0.7,11.4,6.2,11.4,12.8s-5,12-11.4,12.8v31.5h25V123.2z"/>
	<path fill="#E4E6E7" d="M48.3,123.2H2.4v-3h42.9V88.7c-6.4-0.7-11.4-6.2-11.4-12.8s5-12,11.4-12.8V31.6h-25v-3h28V66h-1.5
		c-5.4,0-9.9,4.4-9.9,9.9s4.4,9.9,9.9,9.9h1.5V123.2z"/>
</g>
</svg>
