<?xml version="1.0" encoding="utf-8"?>
<!-- Generator: Adobe Illustrator 18.0.0, SVG Export Plug-In . SVG Version: 6.00 Build 0)  -->
<!DOCTYPE svg PUBLIC "-//W3C//DTD SVG 1.1//EN" "http://www.w3.org/Graphics/SVG/1.1/DTD/svg11.dtd">
<svg version="1.1" id="Layer_1" xmlns="http://www.w3.org/2000/svg" xmlns:xlink="http://www.w3.org/1999/xlink" x="0px" y="0px"
	 viewBox="0 0 238.2 156.7" enable-background="new 0 0 238.2 156.7" xml:space="preserve">
<g>
	<g>
		<g>
			<path fill="#FFFFFF" d="M19.9,103.9c4.3-0.9,8.5,1.9,9.4,6.2s-1.9,8.5-6.2,9.4l5.8,28l182.3-37.4l-5.8-28
				c-4.3,0.9-8.5-1.9-9.4-6.2c-0.9-4.3,1.9-8.5,6.2-9.4l-5.8-28L14.2,75.9L19.9,103.9z"/>
			<path fill="#0080FF" d="M28.9,149.4c-0.9,0-1.7-0.6-1.9-1.6l-5.8-28c-0.2-1,0.5-2.1,1.5-2.3c3.3-0.7,5.4-3.9,4.7-7.1
				c-0.6-2.8-3.1-4.8-5.9-4.8c-0.4,0-0.8,0-1.2,0.1c-0.5,0.1-1,0-1.5-0.3c-0.4-0.3-0.7-0.7-0.8-1.2l-5.8-28c-0.1-0.5,0-1,0.3-1.5
				c0.3-0.4,0.7-0.7,1.2-0.8l182.3-37.4c1-0.2,2.1,0.5,2.3,1.5l5.8,28c0.2,1.1-0.5,2.1-1.5,2.3c-3.3,0.7-5.4,3.9-4.7,7.1
				c0.6,2.8,3.1,4.8,5.9,4.8c0.4,0,0.8,0,1.2-0.1c1-0.2,2.1,0.5,2.3,1.5l5.8,28c0.2,1.1-0.5,2.1-1.5,2.3L29.3,149.4
				C29.2,149.4,29,149.4,28.9,149.4z M25.4,120.8l5,24.4l178.5-36.6l-5-24.4c0,0,0,0-0.1,0c-4.7,0-8.8-3.3-9.7-7.9
				c-1-4.7,1.6-9.3,5.8-11.1l-5-24.4L16.5,77.4l5,24.4c0,0,0,0,0.1,0c4.7,0,8.8,3.3,9.7,7.9C32.2,114.4,29.7,119,25.4,120.8z"/>
		</g>
		<g>
			<g>
				<path fill="#0080FF" d="M74.3,112.5L62,94.4c-0.3-0.4-0.5-0.8-0.6-1.3c-0.3-1.6,0.7-3,2.2-3.3c1.5-0.3,2.6,0.3,3.2,1.4l9.8,15.2
					l3-18c0.2-1,1-2.1,2.3-2.3c1.5-0.3,3,0.6,3.3,2.1c0.1,0.4,0,0.9,0,1.3L81,111.1c-0.3,1.5-1.2,2.6-2.7,2.9l-0.4,0.1
					C76.4,114.4,75.2,113.8,74.3,112.5z"/>
				<path fill="#0080FF" d="M89.9,87.3c-0.3-1.6,0.7-3.1,2.2-3.4s3.1,0.7,3.4,2.2l4.2,20.3c0.3,1.6-0.7,3.1-2.2,3.4
					c-1.6,0.3-3.1-0.7-3.4-2.2L89.9,87.3z"/>
				<path fill="#0080FF" d="M101.9,85.1c-0.3-1.6,0.7-3.1,2.2-3.4l7.6-1.6c6.1-1.2,10.5,1.6,11.6,6.8l0,0.1
					c1.2,5.9-2.7,9.9-8.5,11.1l-4.3,0.9l1,5.1c0.3,1.6-0.7,3.1-2.2,3.4c-1.6,0.3-3.1-0.7-3.4-2.2L101.9,85.1z M114,93.1
					c2.8-0.6,4.1-2.6,3.6-4.8l0-0.1c-0.5-2.5-2.5-3.5-5.3-2.9l-4.3,0.9l1.6,7.8L114,93.1z"/>
			</g>
			<g>
				<polygon fill="#FFFFFF" points="147.1,95.5 138.9,102.2 138.6,91.7 129.7,86 139.6,82.4 142.3,72.1 148.8,80.5 159.4,79.9 
					153.4,88.6 157.3,98.5 				"/>
				<path fill="#0080FF" d="M138.9,104.2c-0.3,0-0.5-0.1-0.8-0.2c-0.7-0.3-1.1-1-1.1-1.7l-0.3-9.5l-8-5.2c-0.6-0.4-1-1.1-0.9-1.9
					s0.6-1.4,1.3-1.6l9-3.2l2.4-9.2c0.2-0.7,0.8-1.3,1.5-1.4c0.7-0.1,1.5,0.1,1.9,0.7l5.9,7.5l9.5-0.6c0.7,0,1.4,0.3,1.8,1
					c0.4,0.6,0.3,1.4-0.1,2l-5.4,7.9l3.5,8.9c0.3,0.7,0.1,1.5-0.4,2c-0.5,0.5-1.3,0.8-2,0.6l-9.2-2.7l-7.4,6.1
					C139.8,104,139.4,104.2,138.9,104.2z M134.1,86.5l5.6,3.6c0.5,0.3,0.9,0.9,0.9,1.6l0.2,6.6l5.1-4.2c0.5-0.4,1.2-0.5,1.8-0.4
					l6.4,1.8l-2.4-6.2c-0.2-0.6-0.2-1.3,0.2-1.8l3.7-5.5l-6.6,0.4c-0.6,0-1.3-0.2-1.6-0.7l-4.1-5.2l-1.7,6.4
					c-0.2,0.6-0.6,1.1-1.2,1.3L134.1,86.5z"/>
			</g>
		</g>
		
			<rect x="23.1" y="104.8" transform="matrix(0.2011 0.9796 -0.9796 0.2011 141.0248 40.5739)" fill="#0080FF" width="45" height="3.9"/>
		
			<rect x="159.7" y="76.8" transform="matrix(0.2011 0.9796 -0.9796 0.2011 222.6732 -115.5888)" fill="#0080FF" width="45" height="3.9"/>
		<path fill="#FF5F57" d="M10.8,69.2L9.2,61c-0.1-0.5,0-1,0.3-1.5c0.3-0.4,0.7-0.7,1.2-0.8L193,21.3c1-0.2,2.1,0.5,2.3,1.5L197,31
			l-3.8,0.8l-1.3-6.3L13.4,62.1l1.3,6.3L10.8,69.2z"/>
		<path fill="#FF5F57" d="M219.3,110.4l-0.8-3.8l6.3-1.3l-13.9-67.8l-6.3,1.3l-0.8-3.8l8.2-1.7c0.5-0.1,1,0,1.5,0.3
			c0.4,0.3,0.7,0.7,0.8,1.2l14.7,71.6c0.1,0.5,0,1-0.3,1.5c-0.3,0.4-0.7,0.7-1.2,0.8L219.3,110.4z"/>
	</g>
	<path fill="#222D3B" d="M207.8,27.4l-7.1-5.3c-0.9-0.6-1-1.9-0.4-2.7c0.6-0.9,1.9-1,2.7-0.4l4.2,3.1l12-14.1
		c0.7-0.8,1.9-0.9,2.7-0.2c0.8,0.7,0.9,1.9,0.2,2.7L207.8,27.4z"/>
</g>
</svg>
