<?xml version="1.0" encoding="utf-8"?>
<!-- Generator: Adobe Illustrator 18.0.0, SVG Export Plug-In . SVG Version: 6.00 Build 0)  -->
<!DOCTYPE svg PUBLIC "-//W3C//DTD SVG 1.1//EN" "http://www.w3.org/Graphics/SVG/1.1/DTD/svg11.dtd">
<svg version="1.1" id="Layer_1" xmlns="http://www.w3.org/2000/svg" xmlns:xlink="http://www.w3.org/1999/xlink" x="0px" y="0px"
	 viewBox="0 0 102.8 116.7" enable-background="new 0 0 102.8 116.7" xml:space="preserve">
<g>
	<g>
		<polyline fill="#0091C9" points="41.8,41.8 41.8,16.5 61.1,16.5 61.1,41.8 		"/>
		<polygon fill="#FFFFFF" points="62.1,41.8 60.1,41.8 60.1,17.5 42.8,17.5 42.8,41.8 40.8,41.8 40.8,15.5 62.1,15.5 		"/>
	</g>
	<g>
		<path fill="#FFFFFF" d="M10.9,100.8l0-0.4l0-23.6l0-21.5c0-0.5-0.4-0.8-0.8-0.8c-0.5,0-0.8,0.4-0.8,0.8l0,29.9l0,15.3l0,0.4
			c0,0.2,0.1,0.3,0.2,0.4c0,0.1,0,0.1,0.1,0.2c0.2,0.2,0.4,0.2,0.6,0.2c0.3,0,0.5-0.2,0.7-0.4C10.8,101.1,10.9,101,10.9,100.8z"/>
		<path fill="#FFFFFF" d="M15.9,52.1h1.3c0.5,0,0.8-0.4,0.8-0.8c0-0.5-0.4-0.8-0.8-0.8h-1h-3.5c-0.5,0-0.8,0.4-0.8,0.8
			c0,0.2,0.1,0.4,0.2,0.6c0.2,0.2,0.4,0.2,0.6,0.2L15.9,52.1z"/>
		<path fill="#FFFFFF" d="M87.1,62.6c0,0.2,0.1,0.4,0.2,0.6c0.2,0.2,0.4,0.2,0.6,0.2c0.5,0,0.8-0.4,0.8-0.8v-4.5
			c0-0.5-0.4-0.8-0.8-0.8s-0.8,0.4-0.8,0.8V62.6z"/>
		<path fill="#FFFFFF" d="M26.3,104.7h-4.5c-0.5,0-0.8,0.4-0.8,0.8c0,0.2,0.1,0.4,0.2,0.6c0.2,0.2,0.4,0.3,0.6,0.2l4.5,0
			c0.5,0,0.8-0.4,0.8-0.8C27.1,105.1,26.7,104.7,26.3,104.7z"/>
		<path fill="#FFFFFF" d="M57.2,106.2c0.2,0.2,0.4,0.2,0.6,0.2l4.5,0c0.5,0,0.8-0.4,0.8-0.8c0-0.5-0.4-0.8-0.8-0.8h-4.5
			c-0.5,0-0.8,0.4-0.8,0.8C57,105.8,57.1,106,57.2,106.2z"/>
		<path fill="#FFFFFF" d="M84.3,106.2c0.2,0.2,0.4,0.2,0.6,0.2l0.8,0c0.8,0,1.6-0.3,2.2-0.9c0.6-0.6,0.9-1.4,0.9-2.3l-0.8,0
			l-0.8,0.1c0,0.4-0.2,0.7-0.4,1c-0.3,0.3-0.6,0.4-1,0.4l-0.8,0c-0.5,0-0.8,0.4-0.8,0.8C84,105.8,84.1,106,84.3,106.2z"/>
		<path fill="#FFFFFF" d="M66.2,106.2c0.2,0.2,0.4,0.2,0.6,0.2l4.5,0c0.5,0,0.8-0.4,0.8-0.8c0-0.5-0.4-0.8-0.8-0.8h-4.5
			c-0.5,0-0.8,0.4-0.8,0.8C66,105.8,66.1,106,66.2,106.2z"/>
		<path fill="#FFFFFF" d="M48.2,106.2c0.2,0.2,0.4,0.2,0.6,0.2h4.5c0.5,0,0.8-0.4,0.8-0.8c0-0.5-0.4-0.8-0.8-0.8h-4.5
			c-0.5,0-0.8,0.4-0.8,0.8C47.9,105.8,48,106,48.2,106.2z"/>
		<path fill="#FFFFFF" d="M75.2,106.2c0.2,0.2,0.4,0.2,0.6,0.2h4.5c0.5,0,0.8-0.4,0.8-0.8c0-0.5-0.4-0.8-0.8-0.8l-4.5,0
			c-0.5,0-0.8,0.4-0.8,0.8C75,105.8,75.1,106,75.2,106.2z"/>
		<path fill="#FFFFFF" d="M18.1,105.6c0-0.5-0.4-0.8-0.8-0.8h-4.5c-0.5,0-0.8,0.4-0.8,0.8c0,0.2,0.1,0.4,0.2,0.6
			c0.2,0.2,0.4,0.2,0.6,0.2h4.5C17.7,106.4,18.1,106.1,18.1,105.6z"/>
		<path fill="#FFFFFF" d="M39.2,106.2c0.2,0.2,0.4,0.2,0.6,0.2l4.5,0c0.5,0,0.8-0.4,0.8-0.8c0-0.5-0.4-0.8-0.8-0.8h-4.5
			c-0.5,0-0.8,0.4-0.8,0.8C38.9,105.8,39,106,39.2,106.2z"/>
		<path fill="#FFFFFF" d="M87.1,98.7c0,0.2,0.1,0.4,0.2,0.6c0.2,0.2,0.4,0.2,0.6,0.2c0.5,0,0.8-0.4,0.8-0.8l0-4.5
			c0-0.5-0.4-0.8-0.8-0.8s-0.8,0.4-0.8,0.8L87.1,98.7z"/>
		<path fill="#FFFFFF" d="M35.3,104.7l-4.5,0c-0.5,0-0.8,0.4-0.8,0.8c0,0.2,0.1,0.4,0.2,0.6c0.2,0.2,0.4,0.2,0.6,0.2l4.5,0
			c0.5,0,0.8-0.4,0.8-0.8C36.1,105.1,35.7,104.7,35.3,104.7z"/>
		<path fill="#FFFFFF" d="M75.2,51.8c0.2,0.2,0.4,0.2,0.6,0.2h4.5c0.5,0,0.8-0.4,0.8-0.8c0-0.5-0.4-0.8-0.8-0.8l-4.5,0
			c-0.5,0-0.8,0.4-0.8,0.8C75,51.4,75.1,51.7,75.2,51.8z"/>
		<path fill="#FFFFFF" d="M66.2,51.8c0.2,0.2,0.4,0.2,0.6,0.2l4.5,0c0.5,0,0.8-0.4,0.8-0.8c0-0.5-0.4-0.8-0.8-0.8l-4.5,0
			c-0.5,0-0.8,0.4-0.8,0.8C65.9,51.4,66,51.7,66.2,51.8z"/>
		<path fill="#FFFFFF" d="M30.1,51.8c0.2,0.2,0.4,0.2,0.6,0.2l4.5,0c0.5,0,0.8-0.4,0.8-0.8c0-0.5-0.4-0.8-0.8-0.8h-4.5
			c-0.5,0-0.8,0.4-0.8,0.8C29.9,51.4,30,51.7,30.1,51.8z"/>
		<path fill="#FFFFFF" d="M21.1,51.8c0.2,0.2,0.4,0.2,0.6,0.2h4.5c0.5,0,0.8-0.4,0.8-0.8c0-0.5-0.4-0.8-0.8-0.8h-4.5
			c-0.5,0-0.8,0.4-0.8,0.8C20.9,51.4,21,51.7,21.1,51.8z"/>
		<path fill="#FFFFFF" d="M39.2,51.8c0.2,0.2,0.4,0.2,0.6,0.2l4.5,0c0.5,0,0.8-0.4,0.8-0.8c0-0.5-0.4-0.8-0.8-0.8l-4.5,0
			c-0.5,0-0.8,0.4-0.8,0.8C38.9,51.4,39,51.7,39.2,51.8z"/>
		<path fill="#FFFFFF" d="M57.2,51.8c0.2,0.2,0.4,0.2,0.6,0.2l4.5,0c0.5,0,0.8-0.4,0.8-0.8c0-0.5-0.4-0.8-0.8-0.8l-4.5,0
			c-0.5,0-0.8,0.4-0.8,0.8C56.9,51.4,57,51.7,57.2,51.8z"/>
		<path fill="#FFFFFF" d="M48.2,51.8c0.2,0.2,0.4,0.2,0.6,0.2h4.5c0.5,0,0.8-0.4,0.8-0.8c0-0.5-0.4-0.8-0.8-0.8l-4.5,0
			c-0.5,0-0.8,0.4-0.8,0.8C47.9,51.4,48,51.7,48.2,51.8z"/>
		<path fill="#FFFFFF" d="M84.2,51.8c0.1,0.1,0.2,0.1,0.3,0.1c0.1,0,0.2,0.1,0.3,0.1l0.5,0l0.3,0c0.2,0,0.4,0,0.6,0.1
			c0.5,0.2,0.9,0.7,0.9,1.3v0.1c0,0.5,0.4,0.8,0.8,0.8c0.5,0,0.8-0.4,0.8-0.9c0-1.5-1.2-2.7-2.6-3c-0.2,0-0.4-0.1-0.6-0.1l-0.3,0
			l-0.5,0c-0.1,0-0.2,0.1-0.3,0.1c-0.3,0.1-0.5,0.4-0.5,0.7C84,51.4,84.1,51.7,84.2,51.8z"/>
		<path fill="#FFFFFF" d="M76.7,71.9c-1.7,0-3.4,0.7-4.6,1.9s-1.9,2.9-1.9,4.6c0,1.7,0.7,3.4,1.9,4.6c1.2,1.2,2.8,1.9,4.6,1.9
			c3.6,0,6.5-2.9,6.5-6.5C83.2,74.9,80.2,71.9,76.7,71.9z M72,78.4c0-1.3,0.5-2.5,1.4-3.4c0.9-0.9,2.1-1.4,3.4-1.4
			c1.3,0,2.5,0.5,3.4,1.4c0.9,0.9,1.4,2.1,1.4,3.4c0,2.6-2.1,4.8-4.8,4.8C74.2,83.2,72,81,72,78.4z"/>
		<path fill="#FFFFFF" d="M26.9,98.2c0,0.5,0.2,0.9,0.5,1.2c0.3,0.3,0.7,0.5,1.2,0.5l3.5,0c0.5,0,0.9-0.2,1.2-0.5
			c0.3-0.3,0.5-0.7,0.5-1.2l0-4.6l4.5,0l0,4.6c0,0.5,0.2,0.9,0.5,1.2c0.3,0.3,0.7,0.5,1.2,0.5h3.5c0.4,0,0.9-0.2,1.2-0.5
			c0.3-0.3,0.5-0.7,0.5-1.2v-4.6l0.8,0c2.5,0,4.8-1,6.6-2.7c1.8-1.8,2.7-4.1,2.7-6.6c0-2.5-1-4.8-2.7-6.6c-0.3-0.3-0.7-0.7-1.1-0.9
			c0.7-1.3,1-2.8,1-4.2c0-2.5-1-4.8-2.7-6.6c-1.3-1.3-2.9-2.1-4.6-2.5l0-4.8c0-0.4-0.2-0.9-0.5-1.2l0,0c-0.3-0.3-0.7-0.5-1.2-0.5
			l-3.5,0c-0.9,0-1.7,0.8-1.7,1.7l0,4.6l-4.5,0l0-4.6c0-0.5-0.2-0.9-0.5-1.2c-0.3-0.3-0.7-0.5-1.2-0.5l-3.5,0
			c-0.4,0-0.9,0.2-1.2,0.5c-0.3,0.3-0.5,0.7-0.5,1.2l0,4.6l-2.5,0l-3.6,0c-0.4,0-0.9,0.2-1.2,0.5c-0.3,0.3-0.5,0.7-0.5,1.2l0,3.5
			c0,0.5,0.2,0.9,0.5,1.2c0.3,0.3,0.7,0.5,1.2,0.5l1.9,0l0,6.5l0,3.5l0,6.5h-1.9c-0.9,0-1.7,0.8-1.7,1.7l0,3.5
			c0,0.4,0.2,0.9,0.5,1.2c0.3,0.3,0.7,0.5,1.2,0.5l6.1,0L26.9,98.2z M24.4,88.4l0-8.2l0-3.5l0-8.2h-3.6v-3.5l3.6,0l3.5,0l0.7,0
			l0-6.3l3.5,0l0,6.3h7.9l0-6.3l3.5,0l0,6.3c2,0.1,3.8,0.9,5.1,2.2c1.4,1.4,2.2,3.3,2.2,5.4c0,1.8-0.6,3.5-1.7,4.8
			c0.9,0.4,1.6,0.9,2.3,1.6c1.4,1.4,2.2,3.3,2.2,5.4c0,4.2-3.4,7.6-7.6,7.6l-2.5,0l0,6.3l-3.5,0l0-6.3l-7.9,0l0,6.3l-3.5,0l0-6.3
			l-7.8,0l0-3.5H24.4z"/>
		<path fill="#FFFFFF" d="M47.3,72.5c0-1.1-0.5-2.2-1.2-2.9c-0.7-0.7-1.8-1.2-2.9-1.2h-3.2h-7.9l-3.5,0h-0.7l0,8.2l15.2,0
			C45.4,76.7,47.3,74.8,47.3,72.5z M29.6,75l0-4.8l2.5,0l7.9,0l3.2,0c0.6,0,1.2,0.3,1.7,0.7c0.5,0.5,0.7,1.1,0.7,1.7
			c0,0.6-0.3,1.3-0.7,1.7c-0.5,0.5-1.1,0.7-1.7,0.7L29.6,75z"/>
		<path fill="#FFFFFF" d="M28.6,88.4L28.6,88.4l3.5,0v0l7.9,0l0,0l3.5,0l0,0l2.5,0c2.3,0,4.1-1.8,4.1-4.1c0-1.1-0.5-2.2-1.2-2.9
			c-0.7-0.7-1.8-1.2-2.9-1.2l-2.8,0l-15.2,0l0,8.2L28.6,88.4z M43.1,81.8l2.8,0c0.6,0,1.3,0.3,1.7,0.7c0.5,0.5,0.7,1.1,0.7,1.7
			c0,0.6-0.3,1.3-0.7,1.7c-0.5,0.5-1.1,0.7-1.7,0.7l-2.4,0c0,0-0.1,0-0.1,0h-3.5c0,0-0.1,0-0.1,0l-7.6,0c0,0-0.1,0-0.1,0l-2.5,0
			l0-4.8L43.1,81.8z"/>
		<path fill="#FFFFFF" d="M97.7,84.8l0-12.8c0-2.1-1.7-3.8-3.8-4V53.5c0-4.2-3.5-7.9-7.7-8.2l0-1.3c0-4.4-3.9-8.3-8.3-8.3l-11,0v1.7
			l11,0c3.6,0,6.6,3,6.6,6.6l0,1.2h-8.1l0-4c0-0.5-0.4-0.8-0.8-0.8l-49.8,0l-7.5,0H6.9c0.2-0.7,0.5-1.3,1-1.8
			c0.7-0.7,1.7-1.1,2.7-1.1h8.3l6.9,0c0,0,0,0,0,0l10.1,0v-1.7l-16.9,0c0,0,0,0,0,0l-8.5,0c-1.5,0-2.8,0.6-3.9,1.6
			c-1,1-1.6,2.4-1.6,3.9l0,0.2c0,0,0,0,0,0l0,63.4c0,0.2,0,0.3,0.1,0.5l0,0.3c0,0,0,0.1,0,0.1c0.2,1.5,0.9,2.9,1.9,3.9
			c1.2,1.2,2.9,2,4.8,2h73.8c4.6,0,8.3-3.7,8.3-8.3l0-14.6C96,88.6,97.7,86.9,97.7,84.8z M7.1,42l10.8,0l7.8,0l49,0l0,3.2h-49
			c0,0,0,0,0,0l-8.5,0l-3.7,0l-3,0c-1.9,0-3.4-1.4-3.7-3.2H7.1z M92.2,103.3c0,3.6-3,6.6-6.6,6.6l-73.8,0c-2.2,0-4.1-1.5-4.8-3.5
			l1.2,0c0.5,0,0.8-0.4,0.8-0.8c0-0.5-0.4-0.8-0.8-0.8l-1.4,0l0-1.4c0,0,0,0,0-0.1l0-1.2l0-0.8l0-0.3c0,0,0,0,0,0l0-0.6l0-1.7
			c0,0,0,0,0,0l0-1.6v-45l1.4,0c0.5,0,0.8-0.4,0.8-0.8c0-0.5-0.4-0.8-0.8-0.8l-1.4,0V49c0,0,0,0,0,0v-1.1c0,0,0,0,0,0l0-2.3
			c0,0,0,0,0,0l0-0.2c1,0.9,2.3,1.5,3.8,1.5l4.7,0c0,0,0,0,0,0l1.7,0l67.6,0l0.8,0h0.3c0.2,0,0.4,0,0.6,0.1c3.3,0.3,6,3.2,6,6.5
			l0,14.5l-3.5,0l0-0.9c0-0.5-0.4-0.8-0.8-0.8c-0.5,0-0.8,0.4-0.8,0.8V68l-0.9,0l-0.8,0l-0.8,0l-10.4,0c-2.4,0-4.6,0.9-6.3,2.6l-3,3
			c-2.6,2.6-2.6,6.8,0,9.4l3,3c1.7,1.7,3.9,2.6,6.3,2.6l10.4,0l0.8,0l0.8,0l0.9,0l0,0.9c0,0.2,0.1,0.4,0.2,0.6
			c0.2,0.2,0.4,0.2,0.6,0.2c0.5,0,0.8-0.4,0.8-0.8l0-0.9l3.5,0V103.3z M96,84.8c0,1.2-0.9,2.1-2.1,2.2c-0.1,0-0.1,0-0.2,0l-0.6,0
			l-0.8,0l-3.5,0l-1.7,0l-0.9,0h-0.8l-0.8,0H74.1c-1.9,0-3.8-0.8-5.1-2.1l-3-3c-1.9-1.9-1.9-5.1,0-7l3-3c1.4-1.4,3.2-2.1,5.1-2.1
			l10.4,0l0.8,0l0.8,0l0.9,0h1.7l3.5,0l0.8,0l0.6,0c0.1,0,0.1,0,0.2,0c0.5,0.1,1,0.2,1.4,0.6c0.4,0.4,0.7,1,0.7,1.6V84.8z"/>
	</g>
	<path fill="#FFFFFF" d="M67.9,41.8h-2V11.6c-2.2-0.4-4-2.2-4.4-4.4h-4.9c-0.5,2.5-2.6,4.3-5.2,4.3c-2.6,0-4.7-1.9-5.2-4.3h-4.9
		c-0.4,2.2-2.2,4-4.4,4.4v30.2h-2V9.7h1c1.9,0,3.5-1.6,3.5-3.5v-1h8.7v1c0,1.8,1.5,3.3,3.3,3.3s3.3-1.5,3.3-3.3v-1h8.7v1
		c0,1.9,1.6,3.5,3.5,3.5h1V41.8z"/>
</g>
</svg>
