<?xml version="1.0" encoding="utf-8"?>
<!-- Generator: Adobe Illustrator 18.0.0, SVG Export Plug-In . SVG Version: 6.00 Build 0)  -->
<!DOCTYPE svg PUBLIC "-//W3C//DTD SVG 1.1//EN" "http://www.w3.org/Graphics/SVG/1.1/DTD/svg11.dtd">
<svg version="1.1" id="Layer_1" xmlns="http://www.w3.org/2000/svg" xmlns:xlink="http://www.w3.org/1999/xlink" x="0px" y="0px"
	 viewBox="0 0 214.5 191.6" enable-background="new 0 0 214.5 191.6" xml:space="preserve">
<g>
	<g>
		<path fill="#F1F1F1" d="M187.2,81.9c-0.3,0-0.6-0.2-0.7-0.6c-0.3-1.1-0.6-2.2-0.9-3.3c-0.1-0.4,0.1-0.8,0.5-0.9
			c0.4-0.1,0.8,0.1,0.9,0.5c0.3,1.1,0.6,2.3,0.9,3.4c0.1,0.4-0.1,0.8-0.6,0.9C187.3,81.9,187.2,81.9,187.2,81.9z"/>
		<path fill="#F1F1F1" d="M183.9,130.4c-0.1,0-0.2,0-0.3-0.1c-0.4-0.2-0.6-0.6-0.4-1c0.9-2.4,1.8-4.8,2.5-7.2
			c0.1-0.4,0.5-0.6,0.9-0.5c0.4,0.1,0.6,0.5,0.5,0.9c-0.7,2.5-1.6,4.9-2.5,7.3C184.4,130.2,184.2,130.4,183.9,130.4z M188.3,114.6
			c0,0-0.1,0-0.1,0c-0.4-0.1-0.7-0.5-0.6-0.9c0.4-2.5,0.7-5,0.9-7.6c0-0.4,0.4-0.7,0.8-0.7c0.4,0,0.7,0.4,0.7,0.8
			c-0.2,2.6-0.5,5.2-0.9,7.7C189,114.3,188.7,114.6,188.3,114.6z M189.4,98.2c-0.4,0-0.7-0.3-0.8-0.7c-0.1-2.5-0.3-5.1-0.6-7.6
			c-0.1-0.4,0.2-0.8,0.6-0.8c0.4-0.1,0.8,0.2,0.8,0.6c0.3,2.5,0.5,5.1,0.6,7.7C190.2,97.8,189.9,98.1,189.4,98.2
			C189.4,98.2,189.4,98.2,189.4,98.2z"/>
		<path fill="#F1F1F1" d="M178.5,141.4c-0.1,0-0.3,0-0.4-0.1c-0.4-0.2-0.5-0.7-0.3-1c0.6-1,1.2-2,1.7-3c0.2-0.4,0.6-0.5,1-0.3
			c0.4,0.2,0.5,0.6,0.3,1c-0.5,1-1.1,2.1-1.7,3.1C179,141.3,178.7,141.4,178.5,141.4z"/>
	</g>
	<g>
		<path fill="#F1F1F1" d="M93.3,22.5c-0.3,0-0.7-0.2-0.7-0.6c-0.1-0.4,0.2-0.8,0.6-0.9c1.1-0.2,2.3-0.4,3.5-0.6
			c0.4-0.1,0.8,0.2,0.9,0.6c0.1,0.4-0.2,0.8-0.6,0.9c-1.1,0.2-2.3,0.4-3.4,0.6C93.4,22.5,93.4,22.5,93.3,22.5z"/>
		<path fill="#F1F1F1" d="M165.1,43.4c-0.2,0-0.4-0.1-0.5-0.2c-1.6-1.6-3.4-3.1-5.1-4.6c-0.3-0.3-0.4-0.7-0.1-1.1
			c0.3-0.3,0.7-0.4,1.1-0.1c1.8,1.5,3.6,3,5.2,4.6c0.3,0.3,0.3,0.8,0,1.1C165.5,43.3,165.3,43.4,165.1,43.4z M153.5,34.1
			c-0.1,0-0.3,0-0.4-0.1c-1.9-1.3-3.9-2.4-5.9-3.5c-0.4-0.2-0.5-0.7-0.3-1c0.2-0.4,0.7-0.5,1-0.3c2,1.1,4.1,2.3,6,3.6
			c0.3,0.2,0.4,0.7,0.2,1C154,34,153.8,34.1,153.5,34.1z M140.5,27.1c-0.1,0-0.2,0-0.3-0.1c-2.1-0.9-4.3-1.7-6.4-2.4
			c-0.4-0.1-0.6-0.5-0.5-0.9c0.1-0.4,0.5-0.6,0.9-0.5c2.2,0.7,4.4,1.5,6.6,2.4c0.4,0.2,0.6,0.6,0.4,1C141,27,140.7,27.1,140.5,27.1z
			 M126.3,22.7c-0.1,0-0.1,0-0.2,0c-2.2-0.5-4.5-0.9-6.8-1.1c-0.4-0.1-0.7-0.4-0.7-0.8c0.1-0.4,0.4-0.7,0.8-0.7
			c2.3,0.3,4.6,0.7,6.9,1.2c0.4,0.1,0.7,0.5,0.6,0.9C127,22.4,126.7,22.7,126.3,22.7z M104.7,21c-0.4,0-0.7-0.3-0.7-0.7
			c0-0.4,0.3-0.8,0.7-0.8c2.3-0.1,4.7-0.2,7-0.1c0.4,0,0.7,0.4,0.7,0.8c0,0.4-0.3,0.8-0.8,0.7C109.3,20.9,107,20.9,104.7,21
			C104.7,21,104.7,21,104.7,21z"/>
		<path fill="#F1F1F1" d="M172.7,51.9c-0.2,0-0.4-0.1-0.6-0.3c-0.7-0.9-1.4-1.8-2.2-2.7c-0.3-0.3-0.2-0.8,0.1-1.1
			c0.3-0.3,0.8-0.2,1.1,0.1c0.8,0.9,1.5,1.8,2.2,2.7c0.3,0.3,0.2,0.8-0.1,1.1C173,51.9,172.9,51.9,172.7,51.9z"/>
	</g>
	<g>
		<path fill="#F1F1F1" d="M33.1,76.9c-0.1,0-0.2,0-0.2,0c-0.4-0.1-0.6-0.5-0.5-0.9c0.4-1.1,0.7-2.3,1.1-3.3c0.1-0.4,0.6-0.6,1-0.4
			c0.4,0.1,0.6,0.6,0.4,1c-0.4,1.1-0.8,2.2-1.1,3.3C33.7,76.7,33.4,76.9,33.1,76.9z"/>
		<path fill="#F1F1F1" d="M36.7,67.5c-0.1,0-0.2,0-0.3-0.1c-0.4-0.2-0.5-0.6-0.4-1c0.8-1.8,1.7-3.5,2.6-5.2c0.2-0.4,0.7-0.5,1-0.3
			c0.4,0.2,0.5,0.7,0.3,1c-0.9,1.7-1.8,3.4-2.6,5.1C37.3,67.3,37,67.5,36.7,67.5z"/>
		<path fill="#F1F1F1" d="M42.8,56.7c-0.1,0-0.3,0-0.4-0.1c-0.3-0.2-0.4-0.7-0.2-1c0.6-1,1.3-1.9,2-2.9c0.2-0.3,0.7-0.4,1-0.2
			c0.3,0.2,0.4,0.7,0.2,1c-0.7,0.9-1.4,1.9-2,2.8C43.3,56.6,43,56.7,42.8,56.7z"/>
	</g>
	<g>
		<path fill="#F1F1F1" d="M40.3,141.2c-0.3,0-0.5-0.1-0.6-0.4c-0.6-1-1.2-2.1-1.7-3.1c-0.2-0.4-0.1-0.8,0.3-1c0.4-0.2,0.8-0.1,1,0.3
			c0.5,1,1.1,2,1.7,3c0.2,0.4,0.1,0.8-0.3,1C40.6,141.1,40.4,141.2,40.3,141.2z"/>
		<path fill="#F1F1F1" d="M35.8,132.2c-0.3,0-0.6-0.2-0.7-0.5c-0.8-1.8-1.4-3.6-2.1-5.4c-0.1-0.4,0.1-0.8,0.5-1
			c0.4-0.1,0.8,0.1,1,0.5c0.6,1.8,1.3,3.5,2,5.3c0.2,0.4,0,0.8-0.4,1C36,132.2,35.9,132.2,35.8,132.2z M31.9,120.6
			c-0.3,0-0.6-0.2-0.7-0.6c-0.5-1.8-0.9-3.7-1.2-5.6c-0.1-0.4,0.2-0.8,0.6-0.9c0.4-0.1,0.8,0.2,0.9,0.6c0.3,1.9,0.7,3.7,1.2,5.5
			c0.1,0.4-0.1,0.8-0.5,0.9C32,120.6,32,120.6,31.9,120.6z"/>
		<path fill="#F1F1F1" d="M29.8,108.6c-0.4,0-0.7-0.3-0.7-0.7c-0.1-1.2-0.2-2.3-0.3-3.5c0-0.4,0.3-0.8,0.7-0.8
			c0.4,0,0.8,0.3,0.8,0.7c0.1,1.2,0.1,2.3,0.3,3.5C30.6,108.2,30.3,108.5,29.8,108.6C29.9,108.6,29.8,108.6,29.8,108.6z"/>
	</g>
	<g>
		<path fill="#F1F1F1" d="M135.1,176.7c-0.3,0-0.6-0.2-0.7-0.5c-0.1-0.4,0.1-0.8,0.5-1c1.1-0.4,2.2-0.8,3.3-1.2c0.4-0.1,0.8,0,1,0.4
			c0.2,0.4,0,0.8-0.4,1c-1.1,0.4-2.2,0.8-3.3,1.2C135.3,176.7,135.2,176.7,135.1,176.7z"/>
		<path fill="#F1F1F1" d="M109.5,180.9c-2,0-3.9-0.1-5.9-0.2c-0.4,0-0.7-0.4-0.7-0.8c0-0.4,0.4-0.7,0.8-0.7c2.4,0.2,4.9,0.2,7.4,0.2
			c0,0,0,0,0,0c0.4,0,0.7,0.3,0.8,0.7c0,0.4-0.3,0.8-0.7,0.8C110.6,180.9,110,180.9,109.5,180.9z M119.6,180.3
			c-0.4,0-0.7-0.3-0.7-0.7c-0.1-0.4,0.2-0.8,0.7-0.8c2.4-0.3,4.9-0.7,7.3-1.3c0.4-0.1,0.8,0.2,0.9,0.6c0.1,0.4-0.2,0.8-0.6,0.9
			C124.7,179.5,122.2,180,119.6,180.3C119.7,180.3,119.6,180.3,119.6,180.3z M95.2,179.6c0,0-0.1,0-0.1,0c-2.5-0.4-4.9-1-7.3-1.7
			c-0.4-0.1-0.6-0.5-0.5-0.9c0.1-0.4,0.5-0.6,0.9-0.5c2.4,0.7,4.8,1.2,7.2,1.6c0.4,0.1,0.7,0.5,0.6,0.9
			C95.9,179.4,95.6,179.6,95.2,179.6z M79.9,175.3c-0.1,0-0.2,0-0.3-0.1c-2.3-0.9-4.6-2-6.9-3.1c-0.4-0.2-0.5-0.6-0.3-1
			c0.2-0.4,0.6-0.5,1-0.3c2.2,1.1,4.4,2.1,6.7,3.1c0.4,0.2,0.6,0.6,0.4,1C80.4,175.1,80.2,175.3,79.9,175.3z"/>
		<path fill="#F1F1F1" d="M65.7,167.9c-0.1,0-0.3,0-0.4-0.1c-1-0.6-2-1.3-2.9-2c-0.3-0.2-0.4-0.7-0.2-1c0.2-0.3,0.7-0.4,1-0.2
			c0.9,0.7,1.9,1.3,2.9,2c0.3,0.2,0.4,0.7,0.2,1C66.2,167.8,65.9,167.9,65.7,167.9z"/>
	</g>
	<g>
		<path fill="#0080FF" d="M109.4,150.5c-27.8,0-50.4-22.6-50.4-50.4c0-13.5,5.2-26.1,14.7-35.7c9.5-9.5,22.2-14.8,35.6-14.8
			c27.8,0,50.5,22.6,50.5,50.4C159.9,127.8,137.3,150.5,109.4,150.5L109.4,150.5z M109.4,52.7c-12.7,0-24.6,5-33.6,13.9
			c-8.9,9-13.9,20.9-13.9,33.6c0,26.1,21.3,47.4,47.4,47.4v1.5l0.1-1.5c26.2,0,47.4-21.3,47.4-47.5
			C156.8,73.9,135.5,52.7,109.4,52.7z"/>
		<path fill="#0080FF" d="M134.2,101.6l24.2,0l0-3l-24.2,0c-0.1-7.7-1-15-2.6-21.4c5.9-1.1,11.7-2.6,17.5-4.6l-1-2.8
			c-5.6,1.9-11.4,3.4-17.3,4.5c-4.3-14.8-12.2-24.6-21.4-24.6c-6.8,0-13.2,5.4-17.8,15.2c-1.4,2.9-2.5,6-3.5,9.4
			c-5.9-1.1-11.6-2.5-17.3-4.4l-1,2.8c5.7,2,11.6,3.4,17.5,4.5c-1.6,6.6-2.5,13.9-2.6,21.4l-24.2,0l0,3l24.2,0
			c0.1,7.7,1,15,2.6,21.4c-5.9,1.1-11.7,2.6-17.5,4.6l1,2.8c5.6-1.9,11.4-3.4,17.3-4.5c4.3,14.8,12.2,24.6,21.4,24.6h0
			c6.8,0,13.2-5.4,17.8-15.2c1.4-2.9,2.5-6,3.5-9.4c5.9,1.1,11.6,2.5,17.3,4.4l1-2.8c-5.7-2-11.6-3.4-17.5-4.5
			C133.2,116.4,134.1,109.1,134.2,101.6z M128.6,122.5c-5.9-0.9-11.8-1.4-17.7-1.5l0-19.4l20.3,0C131.1,109,130.2,116.1,128.6,122.5
			z M131.2,98.6l-20.3,0l0-19.4c5.9-0.1,11.8-0.6,17.6-1.5C130.1,84,131,91.1,131.2,98.6z M127.7,74.8c-5.6,0.9-11.2,1.3-16.8,1.4
			l0-23.4C117.8,53.9,124,62.5,127.7,74.8z M94.2,66.2c3.8-7.9,8.5-12.6,13.6-13.4l0,23.4c-5.6-0.1-11.3-0.5-16.9-1.4
			C91.9,71.7,93,68.8,94.2,66.2z M90.2,77.7c5.9,0.9,11.8,1.4,17.7,1.5l0,19.4l-20.3,0C87.7,91.2,88.6,84.1,90.2,77.7z M87.6,101.6
			l20.3,0l0,19.4c-5.9,0.1-11.8,0.6-17.6,1.5C88.7,116.2,87.8,109.1,87.6,101.6z M91.1,125.4c5.6-0.9,11.2-1.3,16.8-1.4l0,23.4
			C101,146.3,94.8,137.7,91.1,125.4z M124.6,134c-3.8,7.9-8.5,12.6-13.6,13.4l0-23.4c5.6,0.1,11.3,0.5,16.9,1.4
			C126.9,128.5,125.8,131.4,124.6,134z"/>
	</g>
	<path fill="#8A61CB" d="M55.2,49.2c0,0-0.1,0-0.1,0c-0.3,0-0.5-0.2-0.7-0.4c-1.1-1.4-2.2-2.8-3.3-4.2c-0.3-0.4-0.3-1,0.1-1.4
		c0.9-0.8,1.3-2.1,0.7-2.8c-0.5-0.6-1.7-0.4-2.5,0.4c-0.2,0.2-0.5,0.3-0.8,0.3c-0.3,0-0.5-0.1-0.7-0.4c-1.1-1.3-2.1-2.5-3.2-3.8
		c-0.3-0.4-0.3-1,0-1.3c10.5-11.1,22.4-19.8,34.5-25.2c0.5-0.2,1,0,1.3,0.4c1.1,1.9,2.2,3.9,3.2,5.9c0.1,0.3,0.2,0.6,0,0.9
		s-0.4,0.5-0.6,0.6c-0.3,0.1-0.5,0.3-0.6,0.6c-0.2,0.5-0.1,1.2,0.2,1.8c0.7,1.3,2,1.8,2.7,1.6c0.5-0.2,1.1,0,1.4,0.4
		c1,2.1,2.1,4.2,3.1,6.3c0.1,0.3,0.1,0.6,0,0.8c-0.1,0.3-0.4,0.5-0.6,0.5C78.2,33.5,66.6,39.9,55.8,49
		C55.6,49.1,55.4,49.2,55.2,49.2z M53.2,44.1c0.7,0.9,1.4,1.8,2.1,2.7C65.7,38.2,76.9,32,87.6,28.8c-0.7-1.5-1.5-3-2.2-4.5
		c-1.6,0.1-3.5-1-4.4-2.7c-0.6-1.1-0.7-2.4-0.4-3.4c0.2-0.5,0.5-1,0.9-1.3c-0.8-1.4-1.5-2.8-2.3-4.2C68,17.9,56.8,26.1,46.9,36.4
		c0.7,0.8,1.3,1.5,2,2.3c1.6-1,3.6-0.9,4.6,0.4C54.6,40.5,54.4,42.5,53.2,44.1z"/>
	<path fill="#FF8100" d="M148.5,175.8c-0.3,0-0.6-0.1-0.8-0.4c-0.8-1.2-1.7-2.4-2.6-3.6c-0.2-0.2-0.2-0.6-0.2-0.8s0.3-0.5,0.6-0.7
		c0.5-0.2,0.9-0.6,1-1c0.1-0.2,0-0.4-0.1-0.5c-0.4-0.6-1.6-0.7-2.6-0.2c-0.4,0.2-1,0.1-1.3-0.3c-0.9-1.2-1.8-2.5-2.7-3.7
		c-0.2-0.2-0.2-0.5-0.2-0.8c0.1-0.3,0.2-0.5,0.5-0.7c10.8-5.9,19.5-14,24.5-22.9c0.2-0.3,0.4-0.5,0.7-0.5c0.3,0,0.6,0.1,0.8,0.3
		c1.4,1.4,2.8,2.9,4.1,4.3c0.4,0.4,0.4,1,0,1.3c-0.4,0.6-0.2,1.8,0.5,2.7c0.6,0.6,1.3,0.8,1.7,0.3l0.1-0.1c0.2-0.3,0.4-0.4,0.8-0.5
		c0.3,0,0.6,0.1,0.8,0.3c1.3,1.4,2.6,2.8,3.9,4.3c0.3,0.4,0.3,0.9,0.1,1.3c-6.9,9.1-17,16.6-29.3,21.8
		C148.8,175.7,148.6,175.8,148.5,175.8z M147.4,171.4c0.5,0.7,1,1.4,1.5,2.1c11.3-4.9,20.7-11.8,27.2-20.2c-0.9-1-1.7-1.9-2.6-2.9
		c-1.2,0.7-2.9,0.4-4-0.8c-1.1-1.3-1.5-3.1-1-4.5c-0.9-0.9-1.8-1.9-2.7-2.8c-5.1,8.5-13.5,16.2-23.6,22c0.5,0.7,1.1,1.5,1.6,2.2
		c0.5-0.1,0.9-0.2,1.4-0.2c1.2,0,2.3,0.5,2.9,1.3c0.5,0.7,0.6,1.4,0.4,2.2C148.3,170.4,147.9,171,147.4,171.4z"/>
	<path fill="#F1F1F1" d="M109.5,160.9c-1.1,0-2.2,0-3.3-0.1c-0.4,0-0.7-0.4-0.7-0.8c0-0.4,0.4-0.7,0.8-0.7c2.3,0.1,4.7,0.1,6.9,0
		c0.4,0,0.8,0.3,0.8,0.7c0,0.4-0.3,0.8-0.7,0.8C112.1,160.9,110.8,160.9,109.5,160.9z M98.3,159.9c0,0-0.1,0-0.1,0
		c-2.3-0.4-4.6-1-6.9-1.7c-0.4-0.1-0.6-0.5-0.5-0.9c0.1-0.4,0.5-0.6,0.9-0.5c2.2,0.7,4.5,1.3,6.7,1.7c0.4,0.1,0.7,0.5,0.6,0.9
		C98.9,159.6,98.6,159.9,98.3,159.9z M121.2,159.8c-0.4,0-0.7-0.2-0.7-0.6c-0.1-0.4,0.2-0.8,0.6-0.9c2.3-0.5,4.5-1,6.7-1.8
		c0.4-0.1,0.8,0.1,0.9,0.5c0.1,0.4-0.1,0.8-0.5,0.9c-2.3,0.7-4.6,1.3-6.9,1.8C121.3,159.7,121.3,159.8,121.2,159.8z M84,155.2
		c-0.1,0-0.2,0-0.3-0.1c-2.1-1-4.2-2.2-6.3-3.4c-0.4-0.2-0.5-0.7-0.2-1c0.2-0.4,0.7-0.5,1-0.2c2,1.2,4,2.3,6.1,3.3
		c0.4,0.2,0.5,0.6,0.4,1C84.5,155.1,84.2,155.2,84,155.2z M135.5,155c-0.3,0-0.5-0.2-0.7-0.4c-0.2-0.4,0-0.8,0.3-1
		c2.1-1,4.1-2.1,6.1-3.4c0.4-0.2,0.8-0.1,1,0.2c0.2,0.3,0.1,0.8-0.2,1c-2,1.3-4.1,2.4-6.2,3.5C135.7,155,135.6,155,135.5,155z
		 M71.3,147.2c-0.2,0-0.3-0.1-0.5-0.2c-1.8-1.5-3.6-3.1-5.2-4.8c-0.3-0.3-0.3-0.8,0-1.1c0.3-0.3,0.8-0.3,1.1,0
		c1.6,1.7,3.3,3.3,5.1,4.7c0.3,0.3,0.4,0.7,0.1,1.1C71.7,147.1,71.5,147.2,71.3,147.2z M148.1,146.8c-0.2,0-0.4-0.1-0.6-0.3
		c-0.3-0.3-0.2-0.8,0.1-1.1c1.8-1.5,3.5-3.1,5-4.8c0.3-0.3,0.8-0.3,1.1,0c0.3,0.3,0.3,0.8,0,1.1c-1.6,1.7-3.4,3.4-5.2,4.9
		C148.5,146.7,148.3,146.8,148.1,146.8z M61,136.2c-0.2,0-0.5-0.1-0.6-0.3c-1.4-1.9-2.7-3.9-3.9-6c-0.2-0.4-0.1-0.8,0.3-1
		c0.4-0.2,0.8-0.1,1,0.3c1.1,2,2.4,4,3.8,5.8c0.2,0.3,0.2,0.8-0.2,1C61.3,136.2,61.1,136.2,61,136.2z M158.3,135.8
		c-0.2,0-0.3,0-0.4-0.1c-0.3-0.2-0.4-0.7-0.2-1c1.3-1.9,2.6-3.9,3.7-5.9c0.2-0.4,0.7-0.5,1-0.3c0.4,0.2,0.5,0.7,0.3,1
		c-1.1,2.1-2.4,4.1-3.8,6C158.8,135.6,158.5,135.8,158.3,135.8z M53.7,123.1c-0.3,0-0.6-0.2-0.7-0.5c-0.9-2.2-1.6-4.5-2.2-6.8
		c-0.1-0.4,0.1-0.8,0.5-0.9c0.4-0.1,0.8,0.1,0.9,0.5c0.6,2.2,1.3,4.4,2.2,6.6c0.2,0.4,0,0.8-0.4,1C53.9,123.1,53.8,123.1,53.7,123.1
		z M165.5,122.5c-0.1,0-0.2,0-0.3-0.1c-0.4-0.1-0.6-0.6-0.4-1c0.8-2.2,1.5-4.4,2.1-6.6c0.1-0.4,0.5-0.6,0.9-0.5
		c0.4,0.1,0.6,0.5,0.5,0.9c-0.6,2.3-1.3,4.6-2.2,6.8C166,122.3,165.8,122.5,165.5,122.5z M49.9,108.5c-0.4,0-0.7-0.3-0.7-0.7
		c-0.3-2.3-0.5-4.7-0.5-7.1c0-0.4,0.3-0.8,0.7-0.8c0,0,0,0,0,0c0.4,0,0.7,0.3,0.8,0.7c0,2.3,0.2,4.6,0.5,6.9
		C50.7,108.1,50.4,108.5,49.9,108.5C50,108.5,50,108.5,49.9,108.5z M169.1,107.9C169,107.9,169,107.9,169.1,107.9
		c-0.5-0.1-0.8-0.4-0.7-0.8c0.3-2.3,0.4-4.6,0.4-6.9l0-0.2c0-0.4,0.3-0.8,0.8-0.8s0.8,0.3,0.8,0.8l0,0.2c0,2.4-0.1,4.8-0.4,7.1
		C169.8,107.6,169.4,107.9,169.1,107.9z M49.9,93.5C49.9,93.5,49.9,93.5,49.9,93.5c-0.5-0.1-0.8-0.4-0.7-0.8c0.3-2.4,0.7-4.7,1.3-7
		c0.1-0.4,0.5-0.6,0.9-0.5c0.4,0.1,0.6,0.5,0.5,0.9c-0.5,2.2-1,4.5-1.3,6.8C50.6,93.2,50.3,93.5,49.9,93.5z M168.9,92.7
		c-0.4,0-0.7-0.3-0.7-0.6c-0.3-2.3-0.8-4.6-1.3-6.8c-0.1-0.4,0.1-0.8,0.5-0.9c0.4-0.1,0.8,0.1,0.9,0.5c0.6,2.3,1.1,4.6,1.4,7
		c0.1,0.4-0.2,0.8-0.6,0.8C169,92.7,168.9,92.7,168.9,92.7z M53.6,78.9c-0.1,0-0.2,0-0.3-0.1c-0.4-0.2-0.6-0.6-0.4-1
		c0.9-2.2,1.9-4.4,3-6.5c0.2-0.4,0.6-0.5,1-0.3c0.4,0.2,0.5,0.7,0.3,1c-1.1,2-2.1,4.2-2.9,6.3C54.2,78.7,53.9,78.9,53.6,78.9z
		 M165,78.2c-0.3,0-0.6-0.2-0.7-0.5c-0.9-2.1-1.9-4.2-3-6.3c-0.2-0.4-0.1-0.8,0.3-1c0.4-0.2,0.8-0.1,1,0.3c1.1,2.1,2.2,4.2,3.1,6.4
		c0.2,0.4,0,0.8-0.4,1C165.2,78.1,165.1,78.2,165,78.2z M60.8,65.7c-0.2,0-0.3,0-0.4-0.1c-0.3-0.2-0.4-0.7-0.2-1
		c1.4-1.9,2.9-3.8,4.5-5.5c0.3-0.3,0.8-0.3,1.1,0c0.3,0.3,0.3,0.8,0,1.1c-1.6,1.7-3,3.5-4.4,5.4C61.3,65.6,61.1,65.7,60.8,65.7z
		 M157.6,65.1c-0.2,0-0.5-0.1-0.6-0.3c-1.4-1.8-2.9-3.6-4.5-5.3c-0.3-0.3-0.3-0.8,0-1.1c0.3-0.3,0.8-0.3,1.1,0
		c1.6,1.7,3.2,3.6,4.6,5.4c0.2,0.3,0.2,0.8-0.2,1C157.9,65,157.8,65.1,157.6,65.1z M71.1,54.8c-0.2,0-0.4-0.1-0.6-0.3
		c-0.3-0.3-0.2-0.8,0.1-1.1c1.8-1.5,3.7-2.9,5.7-4.2c0.3-0.2,0.8-0.1,1,0.2c0.2,0.3,0.1,0.8-0.2,1c-1.9,1.3-3.8,2.6-5.6,4.1
		C71.5,54.7,71.3,54.8,71.1,54.8z M147.2,54.2c-0.2,0-0.3-0.1-0.5-0.2c-1.8-1.5-3.7-2.8-5.6-4c-0.4-0.2-0.5-0.7-0.2-1
		c0.2-0.3,0.7-0.5,1-0.2c2,1.3,3.9,2.7,5.8,4.1c0.3,0.3,0.4,0.7,0.1,1.1C147.6,54.1,147.4,54.2,147.2,54.2z M83.8,46.7
		c-0.3,0-0.6-0.2-0.7-0.4c-0.2-0.4,0-0.8,0.4-1c2.1-1,4.4-1.9,6.6-2.7c0.4-0.1,0.8,0.1,1,0.5s-0.1,0.8-0.5,1
		c-2.2,0.7-4.3,1.6-6.4,2.6C84,46.6,83.9,46.7,83.8,46.7z M134.4,46.3c-0.1,0-0.2,0-0.3-0.1c-2.1-1-4.3-1.8-6.5-2.5
		c-0.4-0.1-0.6-0.5-0.5-0.9c0.1-0.4,0.6-0.6,0.9-0.5c2.2,0.7,4.5,1.6,6.6,2.6c0.4,0.2,0.5,0.6,0.4,1C135,46.2,134.7,46.3,134.4,46.3
		z M98.1,42c-0.4,0-0.7-0.2-0.7-0.6c-0.1-0.4,0.2-0.8,0.6-0.9c2.3-0.4,4.7-0.8,7.1-0.9c0.4,0,0.8,0.3,0.8,0.7c0,0.4-0.3,0.8-0.7,0.8
		c-2.3,0.2-4.6,0.5-6.9,0.9C98.2,42,98.1,42,98.1,42z M120,41.8c0,0-0.1,0-0.1,0c-2.3-0.4-4.6-0.7-6.9-0.8c-0.4,0-0.7-0.4-0.7-0.8
		c0-0.4,0.4-0.7,0.8-0.7c2.4,0.1,4.7,0.4,7.1,0.8c0.4,0.1,0.7,0.5,0.6,0.9C120.7,41.6,120.4,41.8,120,41.8z"/>
	<g>
		<path fill="#FF5F57" d="M170.2,72.2c-0.3,0-0.6-0.2-0.8-0.4s-0.2-0.6-0.1-0.9c0.5-1.3,4.8-13,8.4-15.5c1.5-1,3.2-1.6,5-1.6
			c2.8,0,5.5,1.4,7.1,3.7c1.3,1.9,1.8,4.2,1.4,6.5s-1.7,4.3-3.6,5.6C184,72.1,171.6,72.2,170.2,72.2
			C170.2,72.2,170.2,72.2,170.2,72.2z M182.7,55.8c-1.4,0-2.7,0.4-3.8,1.2c-2.3,1.6-5.6,9.1-7.2,13.2c4.4-0.1,12.5-0.6,14.8-2.3
			c1.5-1,2.4-2.5,2.7-4.3c0.3-1.8-0.1-3.5-1.1-5C186.9,56.9,184.9,55.8,182.7,55.8z"/>
		<path fill="#FF5F57" d="M182.2,66.2c-1.1,0-2.2-0.6-2.9-1.5c-1.1-1.6-0.7-3.7,0.9-4.8c0.6-0.4,1.3-0.6,2-0.6
			c1.1,0,2.2,0.6,2.9,1.5c0.5,0.8,0.7,1.7,0.6,2.6s-0.7,1.7-1.4,2.2C183.6,66,183,66.2,182.2,66.2z M182.2,61.3
			c-0.3,0-0.6,0.1-0.8,0.3c-0.7,0.5-0.8,1.4-0.4,2.1c0.4,0.6,1.4,0.8,2.1,0.4c0.3-0.2,0.5-0.6,0.6-1c0.1-0.4,0-0.8-0.2-1.1
			C183.2,61.5,182.7,61.3,182.2,61.3z"/>
	</g>
	<g>
		<path fill="#00B66B" d="M25.5,96.5c-0.4,0-0.7,0-1-0.1c-4.7-0.8-7.9-5.3-7-10c0.7-4.1,4.3-7.2,8.5-7.2c0.5,0,1,0,1.5,0.1
			c4.4,0.8,13.2,9.5,14.2,10.5c0.2,0.2,0.3,0.6,0.3,0.9c-0.1,0.3-0.3,0.6-0.6,0.7C41,91.6,30.5,96.5,25.5,96.5z M26,81.2
			c-3.2,0-6,2.3-6.6,5.5c-0.6,3.6,1.8,7.1,5.4,7.7c0.2,0,0.4,0.1,0.7,0.1c3.5,0,10.7-3,13.7-4.3c-3.2-3-9.3-8.4-12.1-8.9
			C26.8,81.2,26.4,81.2,26,81.2z"/>
		<path fill="#00B66B" d="M26.6,91.4c-0.2,0-0.4,0-0.6-0.1c-0.9-0.2-1.7-0.7-2.2-1.4c-0.5-0.8-0.7-1.7-0.6-2.6
			c0.3-1.9,2.1-3.2,4-2.8c0.9,0.2,1.7,0.7,2.2,1.4c0.5,0.8,0.7,1.7,0.6,2.6C29.7,90.2,28.2,91.4,26.6,91.4z M26.5,86.5
			c-0.7,0-1.3,0.5-1.5,1.2c-0.1,0.4,0,0.8,0.2,1.1c0.2,0.3,0.6,0.5,1,0.6c0.8,0.1,1.6-0.4,1.7-1.2c0.1-0.4,0-0.8-0.2-1.1
			c-0.2-0.3-0.6-0.5-1-0.6C26.7,86.5,26.6,86.5,26.5,86.5z"/>
	</g>
	<path fill="#FFB400" d="M45.3,162.3c-0.7,0-1.3-0.3-1.8-0.8c-0.5-0.5-0.7-1.1-0.6-1.8l0.5-4.7c0-0.1,0-0.2-0.1-0.3l-3.6-3
		c-0.7-0.6-1-1.5-0.8-2.4c0.2-0.9,0.9-1.6,1.8-1.7l4.6-1c0.1,0,0.2-0.1,0.3-0.2l1.8-4.3c0.4-0.9,1.2-1.5,2.2-1.5
		c0.9,0,1.6,0.4,2,1.2l2.4,4c0.1,0.1,0.2,0.2,0.3,0.2l4.7,0.3c0.9,0.1,1.7,0.6,2,1.5s0.2,1.8-0.4,2.5l-3.1,3.5
		c-0.1,0.1-0.1,0.2-0.1,0.3l1.1,4.5c0.2,0.7,0,1.5-0.4,2c-0.7,0.8-1.8,1.1-2.8,0.7l-4.3-1.9c-0.1,0-0.2,0-0.3,0l-4,2.5
		C46.2,162.2,45.7,162.3,45.3,162.3z M49.5,142.6c-0.1,0-0.3,0-0.3,0.2l-1.8,4.3c-0.3,0.7-0.9,1.3-1.7,1.4l-4.6,1
		c-0.2,0-0.3,0.2-0.3,0.3c0,0.1,0,0.2,0.1,0.4l3.6,3c0.6,0.5,0.9,1.3,0.8,2l-0.5,4.7c0,0.1,0,0.2,0.1,0.3c0.1,0.1,0.3,0.2,0.5,0.1
		l4-2.5c0.7-0.4,1.5-0.5,2.2-0.2l4.3,1.9c0.2,0.1,0.3,0,0.4-0.1c0.1-0.1,0.1-0.2,0.1-0.3l-1.1-4.5c-0.2-0.8,0-1.6,0.5-2.1l3.1-3.5
		c0.1-0.1,0.1-0.3,0.1-0.4c0-0.1-0.1-0.2-0.3-0.2l-4.7-0.3c-0.8-0.1-1.5-0.5-1.9-1.2l-2.4-4C49.7,142.6,49.6,142.6,49.5,142.6z"/>
	<path fill="#0080FF" d="M15.9,125.9c-0.2,0-0.4,0-0.6-0.1c-1.9-0.3-3.2-2.1-2.8-4c0.3-1.9,2.1-3.2,4-2.8c0.9,0.2,1.7,0.7,2.2,1.4
		c0.5,0.8,0.7,1.7,0.6,2.6C19,124.7,17.6,125.9,15.9,125.9z M15.9,121c-0.7,0-1.3,0.5-1.5,1.2c-0.1,0.8,0.4,1.6,1.2,1.7
		c0.8,0.1,1.6-0.4,1.7-1.2c0.1-0.4,0-0.8-0.2-1.1c-0.2-0.3-0.6-0.5-1-0.6C16,121,15.9,121,15.9,121z"/>
	<path fill="#0080FF" d="M140.6,40.6c-0.2,0-0.4,0-0.6-0.1c-1.9-0.3-3.2-2.1-2.8-4c0.3-1.9,2.1-3.2,4-2.8c1.9,0.3,3.2,2.1,2.8,4
		C143.7,39.4,142.3,40.6,140.6,40.6z M140.6,35.7c-0.7,0-1.3,0.5-1.5,1.2c-0.1,0.8,0.4,1.6,1.2,1.7c0.8,0.1,1.6-0.4,1.7-1.2
		c0.1-0.8-0.4-1.6-1.2-1.7C140.8,35.7,140.7,35.7,140.6,35.7z"/>
	<path fill="#0080FF" d="M198.6,101.4c-0.2,0-0.4,0-0.6-0.1c-1.9-0.3-3.2-2.1-2.8-4c0.3-1.9,2.1-3.2,4-2.8c0.9,0.2,1.7,0.7,2.2,1.4
		s0.7,1.7,0.6,2.6C201.8,100.2,200.3,101.4,198.6,101.4z M198.6,96.5c-0.7,0-1.3,0.5-1.5,1.2c-0.1,0.8,0.4,1.6,1.2,1.7
		c0.8,0.1,1.6-0.4,1.7-1.2c0.1-0.4,0-0.8-0.2-1.1c-0.2-0.3-0.6-0.5-1-0.6C198.8,96.5,198.7,96.5,198.6,96.5z"/>
	<path fill="#0080FF" d="M100.6,173.7c-0.2,0-0.4,0-0.6-0.1c-1.9-0.3-3.2-2.1-2.8-4c0.3-1.9,2.1-3.2,4-2.8c1.9,0.3,3.2,2.1,2.8,4
		C103.8,172.4,102.3,173.7,100.6,173.7z M100.6,168.7c-0.7,0-1.3,0.5-1.5,1.2c-0.1,0.8,0.4,1.6,1.2,1.7c0.8,0.1,1.6-0.4,1.7-1.2
		c0.1-0.8-0.4-1.6-1.2-1.7C100.8,168.7,100.7,168.7,100.6,168.7z"/>
	<path fill="#FFB400" d="M173.8,132.8c-0.6,0-1.2-0.4-1.5-1l-1.1-2.1l-1.9-1.2c-0.5-0.3-0.9-0.9-0.9-1.5c0-0.6,0.3-1.2,0.9-1.5
		l1.9-1.2l1.1-2.1c0.3-0.6,0.9-1,1.5-1c0.6,0,1.2,0.4,1.5,1l1.1,2.1l1.9,1.2c0.5,0.3,0.9,0.9,0.9,1.5c0,0.6-0.3,1.2-0.9,1.5
		l-1.9,1.2l-1.1,2.1C175,132.4,174.5,132.8,173.8,132.8z M170.6,127l1.7,1c0.3,0.2,0.5,0.4,0.7,0.7l0.8,1.6l0.8-1.6
		c0.2-0.3,0.4-0.6,0.7-0.7l1.7-1l-1.7-1c-0.3-0.2-0.5-0.4-0.7-0.7l-0.8-1.6l-0.8,1.6c-0.1,0.3-0.4,0.6-0.7,0.7L170.6,127z"/>
	<path fill="#FFB400" d="M50,70.4c-0.6,0-1.2-0.4-1.5-1l-1.1-2.1l-1.9-1.2c-0.5-0.3-0.9-0.9-0.9-1.5s0.3-1.2,0.9-1.5l1.9-1.2
		l1.1-2.1c0.3-0.6,0.9-1,1.5-1c0.6,0,1.2,0.4,1.5,1l1.1,2.1l1.9,1.2c0.5,0.3,0.9,0.9,0.9,1.5s-0.3,1.2-0.9,1.5l-1.9,1.2l-1.1,2.1
		C51.2,70.1,50.6,70.4,50,70.4z M46.8,64.6l1.7,1c0.3,0.2,0.5,0.4,0.7,0.7L50,68l0.8-1.6c0.2-0.3,0.4-0.6,0.7-0.7l1.7-1l-1.7-1
		c-0.3-0.2-0.5-0.4-0.7-0.7L50,61.2l-0.8,1.6c-0.2,0.3-0.4,0.6-0.7,0.7L46.8,64.6z"/>
</g>
</svg>
